<?xml version="1.0" encoding="UTF-8"?>
<svg width="145px" height="30px" viewBox="0 0 145 30" version="1.1" xmlns="http://www.w3.org/2000/svg" xmlns:xlink="http://www.w3.org/1999/xlink">
    <!-- Generator: Sketch 43.2 (39069) - http://www.bohemiancoding.com/sketch -->
    <title>demv</title>
    <desc>Created with Sketch.</desc>
    <defs></defs>
    <g id="Page-1" stroke="none" stroke-width="1" fill="none" fill-rule="evenodd">
        <g id="demv" fill-rule="nonzero" fill="#848384">
            <g id="Group" transform="translate(35.526316, 0.000000)">
                <path d="M9.82105263,2.86578947 C8.62105263,0.726315789 5.60526316,0.789473684 5.60526316,0.789473684 L0.236842105,0.789473684 L0.236842105,1.23157895 L0.797368421,1.23157895 C1.68157895,1.30263158 1.58684211,2.02105263 1.58684211,2.02105263 L1.58684211,10.2789474 C1.58684211,10.9815789 1.09736842,10.9657895 1.09736842,10.9657895 L0.244736842,11.0842105 L0.244736842,11.4315789 L5.96842105,11.4315789 C7.93594614,11.3997196 9.66393632,10.1164327 10.2631579,8.24210526 C10.872399,6.46991751 10.723883,4.52492934 9.85263158,2.86578947 M8.64473684,8.62105263 C8.36260946,9.40355352 7.81876549,10.0645331 7.10526316,10.4921053 C6.54376956,10.8329922 5.90608297,11.0283685 5.25,11.0605263 L4.11315789,11.0605263 C4.07368421,11.0605263 3.11842105,11.0605263 3.11052632,10.2710526 L3.11052632,1.31842105 L4.13684211,1.31842105 C4.13684211,1.31842105 6.76578947,1.27105263 7.53947368,2.20263158 C8.23994947,2.7077842 8.68874944,3.49030722 8.77105263,4.35 C9.08790881,5.76345214 9.03351317,7.23485415 8.61315789,8.62105263" id="Shape"></path>
                <path d="M16.1763158,3.39473684 C14.4169369,3.06021572 12.6967334,4.13706313 12.2289474,5.86578947 C12.2289474,5.86578947 11.2105263,9.47368421 13.9421053,11.2105263 C15.3607485,11.8972011 17.0155673,11.8972011 18.4342105,11.2105263 L18.4342105,10.5078947 C18.4342105,10.5078947 16.0657895,11.5184211 14.7710526,10.5078947 C14.7710526,10.5078947 13.6657895,10.1684211 13.6184211,7.25526316 L18.4578947,7.25526316 C18.4578947,7.25526316 18.5842105,3.70263158 16.1763158,3.42631579 M16.9657895,6.78157895 L13.7131579,6.78157895 C13.6153309,5.88419098 13.8764293,4.9845367 14.4394737,4.27894737 C15.0316736,3.76902889 15.9078,3.76902889 16.5,4.27894737 C17.0842105,4.93421053 16.9263158,6.78157895 16.9263158,6.78157895" id="Shape"></path>
                <path d="M64.0342105,3.39473684 C62.2748316,3.06021572 60.5546281,4.13706313 60.0868421,5.86578947 C60.0868421,5.86578947 59.0526316,9.47368421 61.7842105,11.2105263 C63.2028538,11.8972011 64.8576725,11.8972011 66.2763158,11.2105263 L66.2763158,10.5078947 C66.2763158,10.5078947 63.9078947,11.5184211 62.6131579,10.5078947 C62.6131579,10.5078947 61.5078947,10.1684211 61.4605263,7.25526316 L66.3157895,7.25526316 C66.3157895,7.25526316 66.4421053,3.70263158 64.0342105,3.42631579 M64.8236842,6.78157895 L61.5789474,6.78157895 C61.4811204,5.88419098 61.7422188,4.9845367 62.3052632,4.27894737 C62.8974631,3.76902889 63.7735895,3.76902889 64.3657895,4.27894737 C64.95,4.93421053 64.7921053,6.78157895 64.7921053,6.78157895" id="Shape"></path>
                <path d="M39.3157895,21.3868421 C37.5587671,21.0516653 35.839553,22.1244549 35.3684211,23.85 C35.3684211,23.85 34.35,27.4578947 37.1052632,29.2105263 C38.5239064,29.8972011 40.1787252,29.8972011 41.5973684,29.2105263 L41.5973684,28.5078947 C41.5973684,28.5078947 39.2289474,29.5105263 37.9342105,28.5078947 C37.9342105,28.5078947 36.8289474,28.1684211 36.7815789,25.2552632 L41.6210526,25.2552632 C41.6210526,25.2552632 41.7473684,21.7105263 39.3394737,21.4342105 M40.1289474,24.7894737 L36.8526316,24.7894737 C36.7535351,23.8895378 37.0146581,22.9869604 37.5789474,22.2789474 C38.1711473,21.7690289 39.0472737,21.7690289 39.6394737,22.2789474 C40.2236842,22.9421053 40.0657895,24.7894737 40.0657895,24.7894737" id="Shape"></path>
                <path d="M62.0289474,21.3868421 C60.271925,21.0516653 58.5527109,22.1244549 58.0815789,23.85 C58.0815789,23.85 57.0473684,27.4578947 59.7789474,29.2026316 C61.1975906,29.8893063 62.8524094,29.8893063 64.2710526,29.2026316 L64.2710526,28.5 C64.2710526,28.5 61.9026316,29.5026316 60.6078947,28.5 C60.6078947,28.5 59.5026316,28.1605263 59.4552632,25.2473684 L64.2947368,25.2473684 C64.2947368,25.2473684 64.4210526,21.7026316 62.0131579,21.4263158 M62.8026316,24.7815789 L59.5815789,24.7815789 C59.4872965,23.8808051 59.7510081,22.9790814 60.3157895,22.2710526 C60.9066695,21.765651 61.777541,21.765651 62.3684211,22.2710526 C62.9605263,22.9342105 62.8026316,24.7815789 62.8026316,24.7815789" id="Shape"></path>
                <path d="M19.2236842,3.57631579 L21.9789474,3.57631579 L21.9789474,9.10263158 C21.9789474,9.10263158 21.9789474,10.9184211 23.2578947,10.8 C24.1973705,10.7932747 25.0772488,10.3386709 25.6263158,9.57631579 L25.6263158,4.5 C25.6263158,4.5 25.6263158,3.93947368 24.2921053,4.01052632 L24.2921053,3.56052632 L27.0473684,3.56052632 L27.0473684,10.3657895 C27.0473684,10.3657895 27.1421053,11.0921053 28.2078947,11.0526316 L28.4210526,11.0526316 L28.4210526,11.4868421 L25.6263158,11.4868421 L25.6263158,10.0815789 C25.032908,10.855042 24.2000944,11.4102511 23.2578947,11.6605263 C23.2578947,11.6605263 20.6763158,11.9921053 20.5894737,9.49736842 L20.5894737,4.73684211 C20.5894737,4.73684211 20.7394737,3.94736842 19.4921053,3.94736842 L19.2473684,3.94736842 L19.2236842,3.57631579 Z" id="Shape"></path>
                <path d="M80.7552632,21.45 L83.5184211,21.45 L83.5184211,26.9763158 C83.5184211,26.9763158 83.4710526,28.7921053 84.7973684,28.6736842 C85.7365297,28.6656868 86.6158669,28.2113626 87.1657895,27.45 L87.1657895,22.3736842 C87.1657895,22.3736842 87.1657895,21.8131579 85.8236842,21.8842105 L85.8236842,21.4342105 L88.5789474,21.4342105 L88.5789474,28.2394737 C88.5789474,28.2394737 88.5394737,28.9815789 89.7394737,28.9263158 L89.9210526,28.9263158 L89.9210526,29.3605263 L87.1578947,29.3605263 L87.1578947,27.9552632 C86.5624511,28.7265472 85.730445,29.281218 84.7894737,29.5342105 C84.7894737,29.5342105 82.2157895,29.8657895 82.1210526,27.3710526 L82.1210526,22.6184211 C82.1210526,22.6184211 82.2710526,21.8289474 81.0236842,21.8289474 L80.7789474,21.8289474 L80.7552632,21.45 Z" id="Shape"></path>
                <path d="M30.4894737,3.56052632 L30.4894737,2.16315789 L31.9105263,1.81578947 L31.9105263,3.56052632 L34.1289474,3.56052632 L34.1289474,4.18421053 L31.8868421,4.18421053 L31.8868421,9.71052632 C31.8868421,9.71052632 31.7447368,11.2894737 33.2763158,11.1552632 C33.5068422,11.1066388 33.7280746,11.0213444 33.9315789,10.9026316 L33.9315789,11.4710526 C33.1158639,11.8457796 32.1695871,11.8046371 31.3894737,11.3605263 C30.7829837,10.8447133 30.4456476,10.0798908 30.4736842,9.28421053 L30.4736842,4.2 L29.3526316,4.2 L29.3526316,3.56052632 L30.4894737,3.56052632 Z" id="Shape"></path>
                <path d="M39.8921053,5.65263158 L40.6815789,5.65263158 L40.6815789,3.83684211 C39.9481239,3.53178779 39.1627469,3.37095973 38.3684211,3.36315789 C37.3683813,3.29311563 36.4054075,3.75510308 35.8342105,4.57894737 C35.3381768,5.62589728 35.7214409,6.87834972 36.7184211,7.46842105 C36.7184211,7.46842105 38.1631579,8.15526316 39.1421053,8.55789474 C39.7653698,8.87449043 40.0587788,9.6029541 39.8289474,10.2631579 C39.6521581,10.7722583 39.2145787,11.1464641 38.6842105,11.2421053 C37.9410687,11.3389851 37.1918095,11.1150685 36.6236842,10.6263158 C36.4229362,10.1246954 36.326242,9.58750514 36.3394737,9.04736842 L35.5263158,9.04736842 L35.5263158,11.0526316 C36.3398742,11.4608024 37.2371615,11.6743135 38.1473684,11.6763158 C38.1473684,11.6763158 40.9657895,11.7473684 41.2342105,9.63157895 C41.4077436,8.57583347 40.762826,7.55754259 39.7342105,7.26315789 C39.7342105,7.26315789 36.9157895,6.31578947 36.9868421,5.60526316 C36.875047,5.22948438 36.9281702,4.82390343 37.1329731,4.4895928 C37.337776,4.15528217 37.6749705,3.92372691 38.0605263,3.85263158 C38.0605263,3.85263158 39.75,3.55263158 39.7973684,4.77631579 L39.8921053,5.65263158 Z" id="Shape"></path>
                <path d="M48.0315789,5.60526316 L48.8210526,5.60526316 L48.8210526,3.78947368 C48.8210526,3.78947368 46.5236842,2.88157895 44.6605263,3.78947368 C43.7953483,4.39883304 43.1721241,5.29314569 42.9,6.31578947 C42.9,6.31578947 42.5763158,8.44736842 43.3105263,9.70263158 C43.9612209,10.7879249 45.0776822,11.5108554 46.3342105,11.6605263 C47.1949281,11.6534166 48.0485467,11.5040333 48.8605263,11.2184211 L48.8605263,10.6184211 C47.952303,10.9197021 46.9764498,10.9525961 46.05,10.7131579 C46.05,10.7131579 44.1236842,10.1842105 44.3052632,7.06578947 C44.3052632,7.06578947 44.3052632,4.14473684 46.2631579,3.77368421 C46.2631579,3.77368421 47.8894737,3.56842105 47.9763158,4.87105263 L48.0315789,5.60526316 Z" id="Shape"></path>
                <path d="M49.9578947,0.402631579 L49.9578947,0 L52.7447368,0 L52.7447368,4.98157895 C52.7447368,4.98157895 53.9052632,3.26052632 55.5,3.40263158 C56.0445015,3.34783849 56.5881468,3.51445827 57.0084353,3.86494618 C57.4287237,4.21543408 57.6902956,4.72030286 57.7342105,5.26578947 L57.7894737,10.2631579 C57.7894737,10.2631579 57.6315789,10.9342105 58.4368421,10.9657895 L59.1078947,11.0368421 L59.1078947,11.4552632 L55.0184211,11.4552632 L55.0184211,11.0368421 L55.7605263,11.0368421 C55.7605263,11.0368421 56.3605263,11.1473684 56.3526316,10.2473684 L56.3526316,5.25 C56.3526316,5.25 56.2105263,3.56842105 54.1026316,4.58684211 L52.8157895,5.48684211 L52.8157895,10.35 C52.8157895,10.35 52.7526316,11.1 53.6052632,11.0526316 L54.1657895,11.1 L54.1657895,11.5184211 L50.0368421,11.5184211 L50.0368421,11.1236842 L50.6842105,11.0842105 C50.8747513,11.0821282 51.0566595,11.0044332 51.1899115,10.86822 C51.3231635,10.7320069 51.3968422,10.5484352 51.3947368,10.3578947 L51.3947368,1.01842105 C51.3947368,1.01842105 51.4815789,0.473684211 50.5184211,0.45 L49.9578947,0.402631579 Z" id="Shape"></path>
                <path d="M67.3026316,4.01052632 L67.3026316,3.56052632 L70.0578947,3.56052632 L70.0578947,5.02894737 C70.0578947,5.02894737 71.1710526,3.37105263 72.4263158,3.37894737 L73.1210526,3.37894737 L73.1210526,5.52631579 L72.3789474,5.52631579 L72.2447368,4.73684211 C72.2447368,4.73684211 72.3236842,4.28684211 71.1947368,4.63421053 C70.7629047,4.88103214 70.3866405,5.21429471 70.0894737,5.61315789 L70.0894737,10.35 C70.0894737,10.35 70.0894737,11.0052632 70.9736842,11.0052632 L71.5815789,11.0052632 L71.5815789,11.4473684 L67.2947368,11.4473684 L67.2947368,11.0526316 L67.8947368,11.0526316 C68.0904617,11.0685719 68.2836492,10.9999735 68.4254908,10.8641676 C68.5673325,10.7283618 68.6442616,10.5383379 68.6368421,10.3421053 L68.6368421,4.81578947 C68.6368421,4.81578947 68.7789474,4.02631579 67.7368421,4.02631579 L67.3026316,4.01052632 Z" id="Shape"></path>
                <path d="M42.5763158,21.9157895 L42.5763158,21.4578947 L45.3236842,21.4578947 L45.3236842,22.9342105 C45.3236842,22.9342105 46.4447368,21.2763158 47.6921053,21.2842105 L48.3868421,21.2842105 L48.3868421,23.4473684 L47.5973684,23.4473684 L47.4631579,22.6578947 C47.4631579,22.6578947 47.5421053,22.2157895 46.4210526,22.5631579 C45.9843126,22.8061851 45.6047348,23.1399982 45.3078947,23.5421053 L45.3078947,28.2789474 C45.3078947,28.2789474 45.3078947,28.9342105 46.1921053,28.9342105 L46.8,28.9342105 L46.8,29.3763158 L42.5763158,29.3763158 L42.5763158,28.9421053 L43.1763158,28.9421053 C43.3713764,28.9582809 43.5639283,28.8894884 43.7045804,28.7533734 C43.8452325,28.6172585 43.9202996,28.427065 43.9105263,28.2315789 L43.9105263,22.7052632 C43.9105263,22.7052632 44.0526316,21.9157895 43.0105263,21.9157895 L42.5763158,21.9157895 Z" id="Shape"></path>
                <path d="M65.3131579,21.9157895 L65.3131579,21.4578947 L68.0684211,21.4578947 L68.0684211,22.9342105 C68.0684211,22.9342105 69.1815789,21.2763158 70.4368421,21.2842105 L71.1236842,21.2842105 L71.1236842,23.4473684 L70.3815789,23.4473684 L70.2473684,22.6578947 C70.2473684,22.6578947 70.3263158,22.2157895 69.1973684,22.5631579 C68.763481,22.8071024 68.3866642,23.1408544 68.0921053,23.5421053 L68.0921053,28.2789474 C68.0921053,28.2789474 68.0921053,28.9342105 68.9763158,28.9342105 L69.5842105,28.9342105 L69.5842105,29.3763158 L65.2973684,29.3763158 L65.2973684,28.9421053 L65.8973684,28.9421053 C66.0930932,28.9580456 66.2862807,28.8894472 66.4281224,28.7536413 C66.5699641,28.6178354 66.6468932,28.4278116 66.6394737,28.2315789 L66.6394737,22.7052632 C66.6394737,22.7052632 66.7815789,21.9157895 65.7394737,21.9157895 L65.3131579,21.9157895 Z" id="Shape"></path>
                <path d="M0.213157895,28.9815789 L0.213157895,29.4157895 L3.66315789,29.4157895 L3.66315789,28.9815789 C3.66315789,28.9815789 2.43157895,29.1157895 2.36842105,28.4210526 L2.36842105,20.0605263 L5.72368421,28.5789474 L6.22105263,28.5789474 L9.61578947,20.1868421 L9.61578947,28.1842105 C9.61578947,28.1842105 9.77368421,29.1078947 8.56578947,28.9736842 L8.33684211,28.9736842 L8.33684211,29.4078947 L12.3710526,29.4078947 L12.3710526,28.9736842 L12.0236842,28.9736842 C11.7730985,29.0118901 11.5186009,28.9355482 11.330418,28.7657246 C11.142235,28.595901 11.0402598,28.3505478 11.0526316,28.0973684 L11.0526316,19.9263158 C11.0526316,19.9263158 10.8789474,19.1368421 12.1026316,19.1368421 L12.3868421,19.1368421 L12.3868421,18.7026316 L9.71052632,18.7026316 L6.55263158,26.5973684 L3.29210526,18.7026316 L0.213157895,18.7026316 L0.213157895,19.1131579 L0.607894737,19.1131579 C0.865469812,19.0486688 1.13821054,19.1179803 1.33374564,19.2976183 C1.52928075,19.4772562 1.62141606,19.743156 1.57894737,20.0052632 L1.57894737,28.4210526 C1.57894737,28.4210526 1.57894737,29.2105263 0.236842105,29.0210526" id="Shape"></path>
                <path d="M19.4210526,28.1526316 L19.4210526,23.4157895 C19.3105263,21.1263158 16.8710526,21.3473684 16.8710526,21.3473684 C15.9002493,21.3916291 14.9466076,21.6193245 14.0605263,22.0184211 L14.0605263,23.4157895 L15,23.4157895 C14.9478589,23.0273166 15.0712675,22.6357853 15.3367433,22.3474236 C15.6022191,22.059062 15.9822339,21.9037713 16.3736842,21.9236842 C17.7868421,21.8447368 17.9526316,22.9105263 17.9526316,22.9105263 L18.0315789,24.8368421 C16.3815789,24.9078947 16.0421053,24.9552632 16.0421053,24.9552632 C13.2868421,25.3421053 13.4210526,27.6315789 13.4210526,27.6315789 C13.7210526,29.8184211 16.0815789,29.6289474 16.0815789,29.6289474 C16.7368421,29.7078947 18.3078947,28.4526316 18.3078947,28.4526316 C18.4066996,28.940878 18.7238175,29.3569133 19.1684211,29.5815789 C19.630379,29.6615239 20.104925,29.6262719 20.55,29.4789474 L20.55,29.0052632 C20.2914117,29.1377838 19.9809297,29.1175476 19.7417306,28.9525827 C19.5025315,28.7876178 19.3732837,28.5045921 19.4052632,28.2157895 L19.4210526,28.1526316 Z M18,28.2631579 C16.4921053,29.2736842 15.6315789,28.5315789 15.6315789,28.5315789 C14.0526316,27.3552632 15.5052632,25.8947368 15.5052632,25.8947368 C16.2157895,25.1052632 18.0157895,25.2710526 18.0157895,25.2710526 L18,28.2631579 Z" id="Shape"></path>
                <path d="M21.0868421,18.3315789 L21.0868421,17.9131579 L23.9052632,17.9131579 L23.8421053,25.1368421 L24.2605263,25.1368421 L27.2210526,22.1447368 C27.2210526,22.1447368 27.3,21.9394737 27.0236842,21.9315789 L26.1315789,21.9315789 L26.1315789,21.4973684 L29.2105263,21.4973684 L29.2105263,21.9473684 C29.2105263,21.9473684 28.2552632,21.9 27.9552632,22.1921053 L25.2631579,24.7657895 L28.7052632,28.7131579 C29.0104405,28.9343241 29.3909775,29.0251986 29.7631579,28.9657895 L29.7631579,29.3684211 L27.5526316,29.4078947 L24.2605263,25.5078947 L23.8184211,25.5078947 L23.8184211,28.1842105 C23.8184211,28.1842105 23.7236842,28.9736842 24.7263158,28.9736842 L25.0105263,28.9736842 L25.0105263,29.4236842 L21.0631579,29.4236842 L21.0631579,28.9894737 L21.3947368,28.9894737 C21.3947368,28.9894737 22.4052632,29.0447368 22.4052632,28.1526316 L22.4052632,19.2394737 C22.4052632,19.2394737 22.5,18.2447368 21.0710526,18.3315789" id="Shape"></path>
                <path d="M30.0473684,18.3473684 L30.0473684,17.9131579 L32.7947368,17.9131579 L32.7947368,28.1763158 C32.7947368,28.1763158 32.6131579,29.2105263 34.2078947,28.9736842 L34.2078947,29.4236842 L30.0473684,29.4236842 L30.0473684,28.9894737 C30.0473684,28.9894737 31.4842105,29.3052632 31.3815789,28.0894737 L31.3815789,18.9394737 C31.3815789,18.9394737 31.5710526,18.2921053 30.0315789,18.3473684" id="Shape"></path>
                <path d="M48.9473684,21.9236842 L48.9473684,21.4973684 L52.3263158,21.4973684 L52.3263158,21.9236842 C52.3263158,21.9236842 51.0315789,21.75 51.3394737,22.4763158 L53.4868421,27.6315789 L55.7210526,22.4921053 C55.7210526,22.4921053 55.9736842,21.9078947 55.3263158,21.8921053 L54.7578947,21.8921053 L54.7578947,21.45 L57.0315789,21.45 L57.0315789,21.9157895 C57.0315789,21.9157895 56.5973684,21.7815789 56.4710526,22.0894737 L53.1157895,29.4315789 L52.6736842,29.4315789 L49.6263158,22.2631579 C49.5351416,21.9733125 49.2346001,21.804042 48.9394737,21.8763158" id="Shape"></path>
                <path d="M78.5052632,21.7184211 C75.8684211,20.4078947 74.2105263,22.8947368 74.2105263,22.8947368 L74.2105263,17.9131579 L71.4236842,17.9131579 L71.4236842,18.3631579 L71.7,18.3631579 C72.9947368,18.3 72.7657895,18.9947368 72.7657895,18.9947368 L72.7657895,29.4947368 L73.9342105,29.4947368 L74.1631579,28.6263158 C75.6789474,29.85 76.6973684,29.6131579 76.6973684,29.6131579 C79.4368421,29.5184211 79.7921053,26.4552632 79.7921053,26.4552632 C80.2578947,22.5078947 78.5289474,21.7184211 78.5289474,21.7184211 M78.4026316,26.1236842 C78.3,29.0289474 76.3421053,28.8315789 76.3421053,28.8315789 C75.5616708,28.7696107 74.8184053,28.4723045 74.2105263,27.9789474 L74.2105263,23.4157895 C74.7507118,22.5169908 75.778378,22.0311849 76.8157895,22.1842105 C78.8368421,22.5552632 78.3947368,26.1315789 78.3947368,26.1315789" id="Shape"></path>
                <path d="M90.4263158,21.9236842 L90.4263158,21.4973684 L93.1578947,21.4973684 L93.1578947,22.9657895 C93.1578947,22.9657895 94.5394737,20.8342105 96.8368421,21.4342105 C97.6575846,21.7267047 98.2111187,22.4972493 98.2263158,23.3684211 L98.2263158,28.4368421 C98.2263158,28.4368421 98.2263158,29.0368421 99.5447368,28.9894737 L99.5447368,29.3842105 L95.4552632,29.3842105 L95.4552632,28.9894737 C95.4552632,28.9894737 96.6157895,29.0763158 96.7184211,28.4684211 L96.7184211,23.1078947 C96.7184211,23.1078947 96.5921053,21.75 94.8,22.3184211 C94.1972797,22.5822475 93.638242,22.9363047 93.1421053,23.3684211 L93.1973684,28.4210526 C93.1973684,28.4210526 93.1578947,29.0052632 94.5315789,28.9657895 L94.5315789,29.3605263 L90.3710526,29.3605263 L90.3710526,28.9578947 C90.3710526,28.9578947 91.5631579,29.0605263 91.6736842,28.4921053 L91.7210526,22.6263158 C91.7210526,22.6263158 91.9026316,21.8368421 90.5210526,21.9157895 L90.4263158,21.9236842 Z" id="Shape"></path>
                <path d="M107.534211,28.2710526 L107.534211,17.9131579 L104.810526,17.9131579 L104.810526,18.3552632 C106.310526,18.2368421 106.128947,19.0026316 106.128947,19.0026316 L106.128947,22.35 C104.692105,20.6210526 102.402632,21.6157895 102.402632,21.6157895 C99.9552632,22.8157895 100.578947,27.0710526 100.578947,27.0710526 C101.368421,30.0789474 103.736842,29.5657895 103.736842,29.5657895 C104.746205,29.4111494 105.643473,28.8378151 106.207895,27.9868421 L106.207895,29.3763158 L108.947368,29.3763158 L108.947368,28.9815789 C107.447368,29.0763158 107.534211,28.2631579 107.534211,28.2631579 L107.534211,28.2710526 Z M106.105263,27.4736842 C105.616357,28.3051175 104.699025,28.788246 103.736842,28.7210526 C101.85,28.35 101.928947,25.6421053 101.928947,25.6421053 C101.778947,23.1315789 102.671053,22.5236842 102.671053,22.5236842 C103.942105,21.2289474 106.073684,22.8947368 106.073684,22.8947368 L106.105263,27.4736842 Z" id="Shape"></path>
            </g>
            <g id="Group" transform="translate(0.000000, 0.789474)">
                <path d="M8.73157895,28.8868421 L8.73157895,16.7052632 L0.789473684,17.6368421 L0.789473684,26.3210526 C0.789473684,26.3210526 0.623684211,28.9578947 2.70789474,28.9263158 L8.73157895,28.8868421 Z" id="Shape" opacity="0.659999967"></path>
                <polygon id="Shape" points="18.8447368 28.8868421 10.9026316 28.8868421 10.9026316 9.42631579 18.8447368 8.50263158"></polygon>
                <path d="M28.95,0.3 L21.0078947,1.23157895 L21.0078947,28.8631579 L26.7789474,28.8631579 C26.7789474,28.8631579 28.9894737,29.1157895 28.95,26.4947368 L28.95,0.3 Z" id="Shape"></path>
            </g>
        </g>
    </g>
</svg>