<?xml version="1.0" encoding="UTF-8"?>
<svg width="147px" height="14px" viewBox="0 0 147 14" version="1.1" xmlns="http://www.w3.org/2000/svg" xmlns:xlink="http://www.w3.org/1999/xlink">
    <!-- Generator: Sketch 43.2 (39069) - http://www.bohemiancoding.com/sketch -->
    <title>mop</title>
    <desc>Created with Sketch.</desc>
    <defs></defs>
    <g id="Page-1" stroke="none" stroke-width="1" fill="none" fill-rule="evenodd">
        <g id="iPad-Pro-Portrait" transform="translate(-53.000000, -465.000000)" fill-rule="nonzero" fill="#848384">
            <g id="mop" transform="translate(53.000000, 465.000000)">
                <path d="M57.3110588,12.796 C54.1824706,12.796 53.4602353,10.3871765 53.4602353,8.88835294 C53.4602353,7.36482353 54.5250588,5.00294118 57.2772941,5.00294118 C58.0151765,5.00294118 59.4365882,5.19647059 59.9578824,5.79764706 C59.9957647,5.85035294 60.018,5.90388235 60.018,5.96235294 C60.018,6.00023529 59.9727059,6.05541176 59.9027059,6.05541176 C59.3254118,6.05541176 58.4302353,6.28188235 58.4302353,7.18117647 C58.4302353,7.74117647 59.0610588,8.31023529 59.8508235,8.31023529 C60.8942353,8.31023529 61.334,7.44305882 61.334,6.72658824 C61.334,6.30164706 61.1882353,5.92447059 60.9255294,5.59588235 C60.2024706,4.64141176 58.5125882,4.20247059 57.1397647,4.20247059 C53.8061176,4.20247059 50.7961176,6.55282353 50.7961176,9.05552941 C50.7961176,11.5384706 53.2551765,13.7965882 56.8507059,13.7965882 C59.4283529,13.7965882 60.8192941,12.9870588 61.9788235,11.5763529 L61.2623529,11.1423529 C60.3054118,12.0803529 59.108,12.796 57.3102353,12.796" id="Shape"></path>
                <path d="M57.3110588,12.796 C54.1824706,12.796 53.4602353,10.3871765 53.4602353,8.88835294 C53.4602353,7.36482353 54.5250588,5.00294118 57.2772941,5.00294118 C58.0151765,5.00294118 59.4365882,5.19647059 59.9578824,5.79764706 C59.9957647,5.85035294 60.018,5.90388235 60.018,5.96235294 C60.018,6.00023529 59.9727059,6.05541176 59.9027059,6.05541176 C59.3254118,6.05541176 58.4302353,6.28188235 58.4302353,7.18117647 C58.4302353,7.74117647 59.0610588,8.31023529 59.8508235,8.31023529 C60.8942353,8.31023529 61.334,7.44305882 61.334,6.72658824 C61.334,6.30164706 61.1882353,5.92447059 60.9255294,5.59588235 C60.2024706,4.64141176 58.5125882,4.20247059 57.1397647,4.20247059 C53.8061176,4.20247059 50.7961176,6.55282353 50.7961176,9.05552941 C50.7961176,11.5384706 53.2551765,13.7965882 56.8507059,13.7965882 C59.4283529,13.7965882 60.8192941,12.9870588 61.9788235,11.5763529 L61.2623529,11.1423529 C60.3054118,12.0803529 59.108,12.796 57.3102353,12.796 M18.8769412,11.4627059 C18.8769412,11.4627059 18.8374118,11.3152941 18.8374118,6.93741176 C18.8374118,2.74070588 18.8621176,2.73082353 18.8621176,2.73082353 C18.9082353,1.52023529 18.76,1.32835294 21.5698824,1.32835294 L21.5698824,0.617647059 L15.1175294,0.617647059 L10.7981176,10.0676471 L10.7412941,10.0676471 L6.76611765,0.617647059 L0.00247058824,0.617647059 L0.00247058824,1.32835294 C2.95235294,1.32835294 2.70117647,1.43623529 2.772,2.72752941 C2.772,2.72752941 2.78929412,3.094 2.78929412,6.48611765 C2.78929412,9.87741176 2.758,10.3278824 2.758,10.3278824 C2.69623529,12.4781176 2.03329412,12.9261176 0.00247058824,12.9261176 L0.00247058824,13.6376471 L6.55447059,13.6376471 L6.55447059,12.9261176 C4.41,12.7647059 4.02129412,12.3850588 4.02129412,10.6317647 L4.02129412,1.41152941 L4.43882353,1.41152941 L9.84035294,13.9983529 L10.3682353,13.9983529 L16.0456471,1.34070588 L16.4071765,1.34070588 L16.4071765,11.6982353 C16.4071765,12.7441176 16.2696471,12.8907059 13.7364706,12.9252941 L13.7364706,13.6368235 L21.6267059,13.6368235 L21.6267059,12.9252941 C19.0927059,12.8536471 18.9255294,12.7268235 18.8777647,11.4618824" id="Shape"></path>
                <path d="M18.8769412,11.4627059 C18.8769412,11.4627059 18.8374118,11.3152941 18.8374118,6.93741176 C18.8374118,2.74070588 18.8621176,2.73082353 18.8621176,2.73082353 C18.9082353,1.52023529 18.76,1.32835294 21.5698824,1.32835294 L21.5698824,0.617647059 L15.1175294,0.617647059 L10.7981176,10.0676471 L10.7412941,10.0676471 L6.76611765,0.617647059 L0.00247058824,0.617647059 L0.00247058824,1.32835294 C2.95235294,1.32835294 2.70117647,1.43623529 2.772,2.72752941 C2.772,2.72752941 2.78929412,3.094 2.78929412,6.48611765 C2.78929412,9.87741176 2.758,10.3278824 2.758,10.3278824 C2.69623529,12.4781176 2.03329412,12.9261176 0.00247058824,12.9261176 L0.00247058824,13.6376471 L6.55447059,13.6376471 L6.55447059,12.9261176 C4.41,12.7647059 4.02129412,12.3850588 4.02129412,10.6317647 L4.02129412,1.41152941 L4.43882353,1.41152941 L9.84035294,13.9983529 L10.3682353,13.9983529 L16.0456471,1.34070588 L16.4071765,1.34070588 L16.4071765,11.6982353 C16.4071765,12.7441176 16.2696471,12.8907059 13.7364706,12.9252941 L13.7364706,13.6368235 L21.6267059,13.6368235 L21.6267059,12.9252941 C19.0927059,12.8536471 18.9255294,12.7268235 18.8777647,11.4618824 L18.8769412,11.4627059 Z M79.6081176,13.2538824 C75.3438824,13.2538824 73.9710588,10.0009412 73.9710588,7.10541176 C73.9710588,4.214 75.3438824,0.957764706 79.6081176,0.957764706 C83.8682353,0.957764706 85.2402353,4.214 85.2402353,7.10541176 C85.2402353,10.0001176 83.8682353,13.2538824 79.6081176,13.2538824 Z M79.6081176,0.235529412 C74.0064706,0.235529412 70.8885882,3.95952941 70.8885882,7.10541176 C70.8885882,10.2529412 74.0064706,13.9769412 79.6081176,13.9769412 C85.204,13.9769412 88.3218824,10.2529412 88.3218824,7.10541176 C88.3218824,3.95870588 85.204,0.235529412 79.6081176,0.235529412 Z" id="Shape"></path>
                <path d="M79.6081176,13.2538824 C75.3438824,13.2538824 73.9710588,10.0009412 73.9710588,7.10541176 C73.9710588,4.214 75.3438824,0.957764706 79.6081176,0.957764706 C83.8682353,0.957764706 85.2402353,4.214 85.2402353,7.10541176 C85.2402353,10.0001176 83.8682353,13.2538824 79.6081176,13.2538824 Z M79.6081176,0.235529412 C74.0064706,0.235529412 70.8885882,3.95952941 70.8885882,7.10541176 C70.8885882,10.2529412 74.0064706,13.9769412 79.6081176,13.9769412 C85.204,13.9769412 88.3218824,10.2529412 88.3218824,7.10541176 C88.3218824,3.95870588 85.204,0.235529412 79.6081176,0.235529412 Z M100.893059,6.78505882 L100.893059,2.48870588 C100.893059,1.49388235 101.588941,1.36705882 104.262118,1.36705882 C107.408824,1.36705882 109.148941,2.19058824 109.144824,3.94388235 C109.139059,6.32223529 107.578471,6.84188235 100.893059,6.78505882 L100.893059,6.78505882 Z M104.623647,0.617647059 L95.6587059,0.617647059 L95.6587059,1.34152941 C98.2198824,1.34152941 98.2552941,1.57129412 98.3401176,2.94658824 C98.3401176,2.94658824 98.3524706,3.37564706 98.3524706,6.96705882 C98.3524706,10.5584706 98.3285882,10.9957647 98.3285882,10.9957647 C98.2470588,12.7103529 98.0807059,12.9285882 95.6323529,12.9285882 L95.6323529,13.6376471 L103.725176,13.6376471 L103.725176,12.9285882 C100.857647,12.8923529 100.893882,12.8544706 100.893882,10.9751765 L100.893882,7.67035294 L104.038941,7.67035294 C107.349529,7.67035294 112.017294,7.24705882 112.048588,4.25435294 C112.079882,1.48564706 108.910118,0.618470588 104.623647,0.618470588 L104.623647,0.617647059 Z" id="Shape"></path>
                <path d="M100.893059,6.78505882 L100.893059,2.48870588 C100.893059,1.49388235 101.588941,1.36705882 104.262118,1.36705882 C107.408824,1.36705882 109.148941,2.19058824 109.144824,3.94388235 C109.139059,6.32223529 107.578471,6.84188235 100.893059,6.78505882 L100.893059,6.78505882 Z M104.623647,0.617647059 L95.6587059,0.617647059 L95.6587059,1.34152941 C98.2198824,1.34152941 98.2552941,1.57129412 98.3401176,2.94658824 C98.3401176,2.94658824 98.3524706,3.37564706 98.3524706,6.96705882 C98.3524706,10.5584706 98.3285882,10.9957647 98.3285882,10.9957647 C98.2470588,12.7103529 98.0807059,12.9285882 95.6323529,12.9285882 L95.6323529,13.6376471 L103.725176,13.6376471 L103.725176,12.9285882 C100.857647,12.8923529 100.893882,12.8544706 100.893882,10.9751765 L100.893882,7.67035294 L104.038941,7.67035294 C107.349529,7.67035294 112.017294,7.24705882 112.048588,4.25435294 C112.079882,1.48564706 108.910118,0.618470588 104.623647,0.618470588 L104.623647,0.617647059 Z M140.501529,13.0488235 C137.916471,13.0488235 136.866471,10.9035294 136.866471,9.00282353 C136.866471,7.10294118 137.916471,4.95517647 140.501529,4.95517647 C143.088235,4.95517647 144.134941,7.10294118 144.134941,9.00282353 C144.134941,10.9027059 143.089059,13.0488235 140.501529,13.0488235 Z M140.501529,4.24117647 C136.780824,4.24117647 134.453529,6.64917647 134.453529,9.00282353 C134.453529,11.3548235 136.781647,13.7628235 140.501529,13.7628235 C144.222235,13.7628235 146.550353,11.3548235 146.550353,9.00282353 C146.550353,6.64917647 144.222235,4.24117647 140.501529,4.24117647 Z" id="Shape"></path>
                <path d="M140.501529,13.0488235 C137.916471,13.0488235 136.866471,10.9035294 136.866471,9.00282353 C136.866471,7.10294118 137.916471,4.95517647 140.501529,4.95517647 C143.088235,4.95517647 144.134941,7.10294118 144.134941,9.00282353 C144.134941,10.9027059 143.089059,13.0488235 140.501529,13.0488235 Z M140.501529,4.24117647 C136.780824,4.24117647 134.453529,6.64917647 134.453529,9.00282353 C134.453529,11.3548235 136.781647,13.7628235 140.501529,13.7628235 C144.222235,13.7628235 146.550353,11.3548235 146.550353,9.00282353 C146.550353,6.64917647 144.222235,4.24117647 140.501529,4.24117647 L140.501529,4.24117647 Z M47.2977647,4.22717647 C47.1742353,4.20494118 47.0432941,4.19258824 46.9065882,4.19258824 C46.6735294,4.19258824 46.4503529,4.21647059 46.2362353,4.25105882 L46.2205882,4.25352941 C44.1807059,4.55823529 43.0302353,5.99611765 42.3310588,7.64152941 L42.2734118,7.64152941 L42.2734118,4.20329412 L37.9589412,4.41 L37.9589412,5.06717647 C40.0144706,5.14705882 40.0054118,5.29694118 40.0284706,6.99341176 C40.0284706,6.99341176 40.0375294,7.49 40.0375294,9.45988235 C40.0375294,11.4289412 40.0144706,11.8678824 40.0144706,11.8678824 C40.0144706,12.8075294 39.8102353,12.9574118 37.9869412,12.9574118 L37.9869412,13.6351765 L44.5603529,13.6351765 L44.5603529,12.9574118 C42.2445882,12.9574118 42.2734118,12.8429412 42.2734118,11.4528235 C42.2734118,8.57458824 44.2811765,4.94035294 46.7031765,5.00294118 C46.8769412,5.00788235 47.11,5.03341176 47.1404706,5.10094118 L47.1544706,5.14376471 C47.1124706,5.35047059 46.3441176,5.50117647 46.3441176,6.34776471 C46.3441176,7.15976471 47.1874118,7.45047059 47.7572941,7.43894118 C48.7101176,7.42329412 49.1671765,6.59976471 49.196,6.14105882 C49.2503529,5.28458824 48.7595294,4.41988235 47.2977647,4.22635294 L47.2977647,4.22717647 Z" id="Shape"></path>
                <path d="M47.2977647,4.22717647 C47.1742353,4.20494118 47.0432941,4.19258824 46.9065882,4.19258824 C46.6735294,4.19258824 46.4503529,4.21647059 46.2362353,4.25105882 L46.2205882,4.25352941 C44.1807059,4.55823529 43.0302353,5.99611765 42.3310588,7.64152941 L42.2734118,7.64152941 L42.2734118,4.20329412 L37.9589412,4.41 L37.9589412,5.06717647 C40.0144706,5.14705882 40.0054118,5.29694118 40.0284706,6.99341176 C40.0284706,6.99341176 40.0375294,7.49 40.0375294,9.45988235 C40.0375294,11.4289412 40.0144706,11.8678824 40.0144706,11.8678824 C40.0144706,12.8075294 39.8102353,12.9574118 37.9869412,12.9574118 L37.9869412,13.6351765 L44.5603529,13.6351765 L44.5603529,12.9574118 C42.2445882,12.9574118 42.2734118,12.8429412 42.2734118,11.4528235 C42.2734118,8.57458824 44.2811765,4.94035294 46.7031765,5.00294118 C46.8769412,5.00788235 47.11,5.03341176 47.1404706,5.10094118 L47.1544706,5.14376471 C47.1124706,5.35047059 46.3441176,5.50117647 46.3441176,6.34776471 C46.3441176,7.15976471 47.1874118,7.45047059 47.7572941,7.43894118 C48.7101176,7.42329412 49.1671765,6.59976471 49.196,6.14105882 C49.2503529,5.28458824 48.7595294,4.41988235 47.2977647,4.22635294 M91.5838824,0.167176471 C90.9291765,0.167176471 90.2876471,0.697529412 90.3016471,1.24435294 C90.3321176,2.534 91.8087059,2.46976471 91.8087059,2.69541176 C91.8087059,3.32211765 91.2322353,3.92823529 90.2423529,4.63894118 L90.8805882,5.03094118 C91.9758824,4.22964706 93.324,3.22823529 93.324,1.72941176 C93.324,0.779882353 92.6981176,0.166352941 91.5838824,0.166352941" id="Shape"></path>
                <path d="M91.5838824,0.167176471 C90.9291765,0.167176471 90.2876471,0.697529412 90.3016471,1.24435294 C90.3321176,2.534 91.8087059,2.46976471 91.8087059,2.69541176 C91.8087059,3.32211765 91.2322353,3.92823529 90.2423529,4.63894118 L90.8805882,5.03094118 C91.9758824,4.22964706 93.324,3.22823529 93.324,1.72941176 C93.324,0.779882353 92.6981176,0.166352941 91.5838824,0.166352941 L91.5838824,0.167176471 Z M118.628588,13.048 C116.042706,13.048 114.995176,10.9035294 114.995176,9.002 C114.995176,7.10047059 116.042706,4.956 118.628588,4.956 C121.214471,4.956 122.159059,7.10047059 122.159059,9.002 C122.159059,10.9027059 121.213647,13.048 118.628588,13.048 Z M118.628588,4.24117647 C114.906235,4.24117647 112.579765,6.64917647 112.579765,9.002 C112.579765,11.3548235 114.905412,13.762 118.628588,13.762 C122.348471,13.762 124.676588,11.354 124.676588,9.002 C124.676588,6.64917647 122.348471,4.24117647 118.628588,4.24117647 L118.628588,4.24117647 Z" id="Shape"></path>
                <path d="M118.628588,13.048 C116.042706,13.048 114.995176,10.9035294 114.995176,9.002 C114.995176,7.10047059 116.042706,4.956 118.628588,4.956 C121.214471,4.956 122.159059,7.10047059 122.159059,9.002 C122.159059,10.9027059 121.213647,13.048 118.628588,13.048 Z M118.628588,4.24117647 C114.906235,4.24117647 112.579765,6.64917647 112.579765,9.002 C112.579765,11.3548235 114.905412,13.762 118.628588,13.762 C122.348471,13.762 124.676588,11.354 124.676588,9.002 C124.676588,6.64917647 122.348471,4.24117647 118.628588,4.24117647 L118.628588,4.24117647 Z M130.725412,11.6430588 L130.725412,0.312941176 L126.018941,0.609411765 L126.018941,1.30776471 C128.072,1.38023529 128.409647,1.52682353 128.409647,2.56694118 C128.409647,2.56694118 128.468941,3.00670588 128.468941,7.02305882 C128.468941,11.0369412 128.409647,11.4956471 128.409647,11.4956471 C128.409647,12.7210588 128.127176,12.922 126.301412,12.922 L126.301412,13.6384706 L132.749647,13.6384706 L132.749647,12.922 C131.035059,12.922 130.725412,12.5917647 130.725412,11.6430588 L130.725412,11.6430588 Z" id="Shape"></path>
                <path d="M130.725412,11.6430588 L130.725412,0.312941176 L126.018941,0.609411765 L126.018941,1.30776471 C128.072,1.38023529 128.409647,1.52682353 128.409647,2.56694118 C128.409647,2.56694118 128.468941,3.00670588 128.468941,7.02305882 C128.468941,11.0369412 128.409647,11.4956471 128.409647,11.4956471 C128.409647,12.7210588 128.127176,12.922 126.301412,12.922 L126.301412,13.6384706 L132.749647,13.6384706 L132.749647,12.922 C131.035059,12.922 130.725412,12.5917647 130.725412,11.6430588 L130.725412,11.6430588 Z M31.8829412,9.55211765 C31.8096471,11.1843529 30.3009412,12.7523529 27.9555294,12.7523529 C27.0850588,12.7523529 26.2104706,12.2607059 26.1297647,11.5121176 C25.8991765,9.33058824 30.114,9.04152941 31.8969412,8.63058824 C31.8969412,8.77223529 31.9027059,8.73435294 31.8829412,9.55211765 L31.8829412,9.55211765 Z M35.9174118,12.3949412 C35.8424706,12.4838824 35.5278824,12.8289412 35.0469412,12.8289412 C34.2744706,12.8289412 34.1237647,12.2532941 34.1237647,11.3301176 L34.1237647,7.02470588 C34.1237647,4.50635294 31.2389412,4.20658824 29.1134118,4.20658824 C28.5690588,4.20658824 28.0271765,4.24529412 27.51,4.32105882 C27.0117647,4.37952941 26.5332941,4.48576471 26.0968235,4.63811765 L26.0754118,4.64470588 L26.0770588,4.64552941 C25.0015294,5.02270588 24.2084706,5.80011765 24.2084706,6.63682353 C24.2084706,7.25776471 24.8121176,7.89682353 25.5532941,7.89682353 C26.3883529,7.89682353 27.0364706,7.42576471 27.0364706,6.74882353 C27.0364706,6.14764706 26.7004706,5.73423529 26.0045882,5.56376471 C26.0894118,5.48058824 26.5242353,5.29776471 26.9689412,5.18576471 C27.5404706,5.03752941 28.4537647,5.01035294 28.882,5.01035294 C30.968,5.01035294 31.8368235,5.75482353 31.8837647,7.20917647 C31.8977647,7.90670588 31.8837647,8.00388235 31.8837647,8.00388235 C28.784,8.73682353 23.6797647,8.66682353 23.6369412,11.41 C23.6163529,12.67 25.0583529,13.7949412 26.9129412,13.7949412 C29.33,13.7949412 30.6937647,13.0282353 31.8368235,11.6274118 L31.8961176,11.6274118 C31.9512941,12.7754118 32.7929412,13.7949412 34.2695294,13.7949412 C35.8918824,13.7949412 36.3827059,12.9565882 36.4741176,12.8915294 L35.9174118,12.3924706 L35.9174118,12.3949412 Z" id="Shape"></path>
                <path d="M31.8829412,9.55211765 C31.8096471,11.1843529 30.3009412,12.7523529 27.9555294,12.7523529 C27.0850588,12.7523529 26.2104706,12.2607059 26.1297647,11.5121176 C25.8991765,9.33058824 30.114,9.04152941 31.8969412,8.63058824 C31.8969412,8.77223529 31.9027059,8.73435294 31.8829412,9.55211765 L31.8829412,9.55211765 Z M35.9174118,12.3949412 C35.8424706,12.4838824 35.5278824,12.8289412 35.0469412,12.8289412 C34.2744706,12.8289412 34.1237647,12.2532941 34.1237647,11.3301176 L34.1237647,7.02470588 C34.1237647,4.50635294 31.2389412,4.20658824 29.1134118,4.20658824 C28.5690588,4.20658824 28.0271765,4.24529412 27.51,4.32105882 C27.0117647,4.37952941 26.5332941,4.48576471 26.0968235,4.63811765 L26.0754118,4.64470588 L26.0770588,4.64552941 C25.0015294,5.02270588 24.2084706,5.80011765 24.2084706,6.63682353 C24.2084706,7.25776471 24.8121176,7.89682353 25.5532941,7.89682353 C26.3883529,7.89682353 27.0364706,7.42576471 27.0364706,6.74882353 C27.0364706,6.14764706 26.7004706,5.73423529 26.0045882,5.56376471 C26.0894118,5.48058824 26.5242353,5.29776471 26.9689412,5.18576471 C27.5404706,5.03752941 28.4537647,5.01035294 28.882,5.01035294 C30.968,5.01035294 31.8368235,5.75482353 31.8837647,7.20917647 C31.8977647,7.90670588 31.8837647,8.00388235 31.8837647,8.00388235 C28.784,8.73682353 23.6797647,8.66682353 23.6369412,11.41 C23.6163529,12.67 25.0583529,13.7949412 26.9129412,13.7949412 C29.33,13.7949412 30.6937647,13.0282353 31.8368235,11.6274118 L31.8961176,11.6274118 C31.9512941,12.7754118 32.7929412,13.7949412 34.2695294,13.7949412 C35.8918824,13.7949412 36.3827059,12.9565882 36.4741176,12.8915294 L35.9174118,12.3924706 L35.9174118,12.3949412 Z" id="Shape"></path>
            </g>
        </g>
    </g>
</svg>