<?xml version="1.0" encoding="UTF-8"?>
<svg width="178px" height="17px" viewBox="0 0 178 17" version="1.1" xmlns="http://www.w3.org/2000/svg" xmlns:xlink="http://www.w3.org/1999/xlink">
    <!-- Generator: Sketch 43.2 (39069) - http://www.bohemiancoding.com/sketch -->
    <title>logo_mop</title>
    <desc>Created with Sketch.</desc>
    <defs></defs>
    <g id="Page-1" stroke="none" stroke-width="1" fill="none" fill-rule="evenodd">
        <g id="logo_mop" fill-rule="nonzero" fill="#848384">
            <path d="M69.592,15.538 C65.793,15.538 64.916,12.613 64.916,10.793 C64.916,8.943 66.209,6.075 69.551,6.075 C70.447,6.075 72.173,6.31 72.806,7.04 C72.852,7.104 72.879,7.169 72.879,7.24 C72.879,7.286 72.824,7.353 72.739,7.353 C72.038,7.353 70.951,7.628 70.951,8.72 C70.951,9.4 71.717,10.091 72.676,10.091 C73.943,10.091 74.477,9.038 74.477,8.168 C74.477,7.652 74.3,7.194 73.981,6.795 C73.103,5.636 71.051,5.103 69.384,5.103 C65.336,5.103 61.681,7.957 61.681,10.996 C61.681,14.011 64.667,16.753 69.033,16.753 C72.163,16.753 73.852,15.77 75.26,14.057 L74.39,13.53 C73.228,14.669 71.774,15.538 69.591,15.538" id="Shape"></path>
            <path d="M69.592,15.538 C65.793,15.538 64.916,12.613 64.916,10.793 C64.916,8.943 66.209,6.075 69.551,6.075 C70.447,6.075 72.173,6.31 72.806,7.04 C72.852,7.104 72.879,7.169 72.879,7.24 C72.879,7.286 72.824,7.353 72.739,7.353 C72.038,7.353 70.951,7.628 70.951,8.72 C70.951,9.4 71.717,10.091 72.676,10.091 C73.943,10.091 74.477,9.038 74.477,8.168 C74.477,7.652 74.3,7.194 73.981,6.795 C73.103,5.636 71.051,5.103 69.384,5.103 C65.336,5.103 61.681,7.957 61.681,10.996 C61.681,14.011 64.667,16.753 69.033,16.753 C72.163,16.753 73.852,15.77 75.26,14.057 L74.39,13.53 C73.228,14.669 71.774,15.538 69.591,15.538 M22.922,13.919 C22.922,13.919 22.874,13.74 22.874,8.424 C22.874,3.328 22.904,3.316 22.904,3.316 C22.96,1.846 22.78,1.613 26.192,1.613 L26.192,0.75 L18.357,0.75 L13.112,12.225 L13.043,12.225 L8.216,0.75 L0.003,0.75 L0.003,1.613 C3.585,1.613 3.28,1.744 3.366,3.312 C3.366,3.312 3.387,3.757 3.387,7.876 C3.387,11.994 3.349,12.541 3.349,12.541 C3.274,15.152 2.469,15.696 0.003,15.696 L0.003,16.56 L7.959,16.56 L7.959,15.696 C5.355,15.5 4.883,15.039 4.883,12.91 L4.883,1.714 L5.39,1.714 L11.949,16.998 L12.59,16.998 L19.484,1.628 L19.923,1.628 L19.923,14.205 C19.923,15.475 19.756,15.653 16.68,15.695 L16.68,16.559 L26.261,16.559 L26.261,15.695 C23.184,15.608 22.981,15.454 22.923,13.918" id="Shape"></path>
            <path d="M22.922,13.919 C22.922,13.919 22.874,13.74 22.874,8.424 C22.874,3.328 22.904,3.316 22.904,3.316 C22.96,1.846 22.78,1.613 26.192,1.613 L26.192,0.75 L18.357,0.75 L13.112,12.225 L13.043,12.225 L8.216,0.75 L0.003,0.75 L0.003,1.613 C3.585,1.613 3.28,1.744 3.366,3.312 C3.366,3.312 3.387,3.757 3.387,7.876 C3.387,11.994 3.349,12.541 3.349,12.541 C3.274,15.152 2.469,15.696 0.003,15.696 L0.003,16.56 L7.959,16.56 L7.959,15.696 C5.355,15.5 4.883,15.039 4.883,12.91 L4.883,1.714 L5.39,1.714 L11.949,16.998 L12.59,16.998 L19.484,1.628 L19.923,1.628 L19.923,14.205 C19.923,15.475 19.756,15.653 16.68,15.695 L16.68,16.559 L26.261,16.559 L26.261,15.695 C23.184,15.608 22.981,15.454 22.923,13.918 L22.922,13.919 Z M96.667,16.094 C91.489,16.094 89.822,12.144 89.822,8.628 C89.822,5.117 91.489,1.163 96.667,1.163 C101.84,1.163 103.506,5.117 103.506,8.628 C103.506,12.143 101.84,16.094 96.667,16.094 Z M96.667,0.286 C89.865,0.286 86.079,4.808 86.079,8.628 C86.079,12.45 89.865,16.972 96.667,16.972 C103.462,16.972 107.248,12.45 107.248,8.628 C107.248,4.807 103.462,0.286 96.667,0.286 Z" id="Shape"></path>
            <path d="M96.667,16.094 C91.489,16.094 89.822,12.144 89.822,8.628 C89.822,5.117 91.489,1.163 96.667,1.163 C101.84,1.163 103.506,5.117 103.506,8.628 C103.506,12.143 101.84,16.094 96.667,16.094 Z M96.667,0.286 C89.865,0.286 86.079,4.808 86.079,8.628 C86.079,12.45 89.865,16.972 96.667,16.972 C103.462,16.972 107.248,12.45 107.248,8.628 C107.248,4.807 103.462,0.286 96.667,0.286 Z M122.513,8.239 L122.513,3.022 C122.513,1.814 123.358,1.66 126.604,1.66 C130.425,1.66 132.538,2.66 132.533,4.789 C132.526,7.677 130.631,8.308 122.513,8.239 L122.513,8.239 Z M127.043,0.75 L116.157,0.75 L116.157,1.629 C119.267,1.629 119.31,1.908 119.413,3.578 C119.413,3.578 119.428,4.099 119.428,8.46 C119.428,12.821 119.399,13.352 119.399,13.352 C119.3,15.434 119.098,15.699 116.125,15.699 L116.125,16.56 L125.952,16.56 L125.952,15.699 C122.47,15.655 122.514,15.609 122.514,13.327 L122.514,9.314 L126.333,9.314 C130.353,9.314 136.021,8.8 136.059,5.166 C136.097,1.804 132.248,0.751 127.043,0.751 L127.043,0.75 Z" id="Shape"></path>
            <path d="M122.513,8.239 L122.513,3.022 C122.513,1.814 123.358,1.66 126.604,1.66 C130.425,1.66 132.538,2.66 132.533,4.789 C132.526,7.677 130.631,8.308 122.513,8.239 L122.513,8.239 Z M127.043,0.75 L116.157,0.75 L116.157,1.629 C119.267,1.629 119.31,1.908 119.413,3.578 C119.413,3.578 119.428,4.099 119.428,8.46 C119.428,12.821 119.399,13.352 119.399,13.352 C119.3,15.434 119.098,15.699 116.125,15.699 L116.125,16.56 L125.952,16.56 L125.952,15.699 C122.47,15.655 122.514,15.609 122.514,13.327 L122.514,9.314 L126.333,9.314 C130.353,9.314 136.021,8.8 136.059,5.166 C136.097,1.804 132.248,0.751 127.043,0.751 L127.043,0.75 Z M170.609,15.845 C167.47,15.845 166.195,13.24 166.195,10.932 C166.195,8.625 167.47,6.017 170.609,6.017 C173.75,6.017 175.021,8.625 175.021,10.932 C175.021,13.239 173.751,15.845 170.609,15.845 Z M170.609,5.15 C166.091,5.15 163.265,8.074 163.265,10.932 C163.265,13.788 166.092,16.712 170.609,16.712 C175.127,16.712 177.954,13.788 177.954,10.932 C177.954,8.074 175.127,5.15 170.609,5.15 Z" id="Shape"></path>
            <path d="M170.609,15.845 C167.47,15.845 166.195,13.24 166.195,10.932 C166.195,8.625 167.47,6.017 170.609,6.017 C173.75,6.017 175.021,8.625 175.021,10.932 C175.021,13.239 173.751,15.845 170.609,15.845 Z M170.609,5.15 C166.091,5.15 163.265,8.074 163.265,10.932 C163.265,13.788 166.092,16.712 170.609,16.712 C175.127,16.712 177.954,13.788 177.954,10.932 C177.954,8.074 175.127,5.15 170.609,5.15 L170.609,5.15 Z M57.433,5.133 C57.283,5.106 57.124,5.091 56.958,5.091 C56.675,5.091 56.404,5.12 56.144,5.162 L56.125,5.165 C53.648,5.535 52.251,7.281 51.402,9.279 L51.332,9.279 L51.332,5.104 L46.093,5.355 L46.093,6.153 C48.589,6.25 48.578,6.432 48.606,8.492 C48.606,8.492 48.617,9.095 48.617,11.487 C48.617,13.878 48.589,14.411 48.589,14.411 C48.589,15.552 48.341,15.734 46.127,15.734 L46.127,16.557 L54.109,16.557 L54.109,15.734 C51.297,15.734 51.332,15.595 51.332,13.907 C51.332,10.412 53.77,5.999 56.711,6.075 C56.922,6.081 57.205,6.112 57.242,6.194 L57.259,6.246 C57.208,6.497 56.275,6.68 56.275,7.708 C56.275,8.694 57.299,9.047 57.991,9.033 C59.148,9.014 59.703,8.014 59.738,7.457 C59.804,6.417 59.208,5.367 57.433,5.132 L57.433,5.133 Z" id="Shape"></path>
            <path d="M57.433,5.133 C57.283,5.106 57.124,5.091 56.958,5.091 C56.675,5.091 56.404,5.12 56.144,5.162 L56.125,5.165 C53.648,5.535 52.251,7.281 51.402,9.279 L51.332,9.279 L51.332,5.104 L46.093,5.355 L46.093,6.153 C48.589,6.25 48.578,6.432 48.606,8.492 C48.606,8.492 48.617,9.095 48.617,11.487 C48.617,13.878 48.589,14.411 48.589,14.411 C48.589,15.552 48.341,15.734 46.127,15.734 L46.127,16.557 L54.109,16.557 L54.109,15.734 C51.297,15.734 51.332,15.595 51.332,13.907 C51.332,10.412 53.77,5.999 56.711,6.075 C56.922,6.081 57.205,6.112 57.242,6.194 L57.259,6.246 C57.208,6.497 56.275,6.68 56.275,7.708 C56.275,8.694 57.299,9.047 57.991,9.033 C59.148,9.014 59.703,8.014 59.738,7.457 C59.804,6.417 59.208,5.367 57.433,5.132 M111.209,0.203 C110.414,0.203 109.635,0.847 109.652,1.511 C109.689,3.077 111.482,2.999 111.482,3.273 C111.482,4.034 110.782,4.77 109.58,5.633 L110.355,6.109 C111.685,5.136 113.322,3.92 113.322,2.1 C113.322,0.947 112.562,0.202 111.209,0.202" id="Shape"></path>
            <path d="M111.209,0.203 C110.414,0.203 109.635,0.847 109.652,1.511 C109.689,3.077 111.482,2.999 111.482,3.273 C111.482,4.034 110.782,4.77 109.58,5.633 L110.355,6.109 C111.685,5.136 113.322,3.92 113.322,2.1 C113.322,0.947 112.562,0.202 111.209,0.202 L111.209,0.203 Z M144.049,15.844 C140.909,15.844 139.637,13.24 139.637,10.931 C139.637,8.622 140.909,6.018 144.049,6.018 C147.189,6.018 148.336,8.622 148.336,10.931 C148.336,13.239 147.188,15.844 144.049,15.844 Z M144.049,5.15 C139.529,5.15 136.704,8.074 136.704,10.931 C136.704,13.788 139.528,16.711 144.049,16.711 C148.566,16.711 151.393,13.787 151.393,10.931 C151.393,8.074 148.566,5.15 144.049,5.15 L144.049,5.15 Z" id="Shape"></path>
            <path d="M144.049,15.844 C140.909,15.844 139.637,13.24 139.637,10.931 C139.637,8.622 140.909,6.018 144.049,6.018 C147.189,6.018 148.336,8.622 148.336,10.931 C148.336,13.239 147.188,15.844 144.049,15.844 Z M144.049,5.15 C139.529,5.15 136.704,8.074 136.704,10.931 C136.704,13.788 139.528,16.711 144.049,16.711 C148.566,16.711 151.393,13.787 151.393,10.931 C151.393,8.074 148.566,5.15 144.049,5.15 L144.049,5.15 Z M158.738,14.138 L158.738,0.38 L153.023,0.74 L153.023,1.588 C155.516,1.676 155.926,1.854 155.926,3.117 C155.926,3.117 155.998,3.651 155.998,8.528 C155.998,13.402 155.926,13.959 155.926,13.959 C155.926,15.447 155.583,15.691 153.366,15.691 L153.366,16.561 L161.196,16.561 L161.196,15.691 C159.114,15.691 158.738,15.29 158.738,14.138 L158.738,14.138 Z" id="Shape"></path>
            <path d="M158.738,14.138 L158.738,0.38 L153.023,0.74 L153.023,1.588 C155.516,1.676 155.926,1.854 155.926,3.117 C155.926,3.117 155.998,3.651 155.998,8.528 C155.998,13.402 155.926,13.959 155.926,13.959 C155.926,15.447 155.583,15.691 153.366,15.691 L153.366,16.561 L161.196,16.561 L161.196,15.691 C159.114,15.691 158.738,15.29 158.738,14.138 L158.738,14.138 Z M38.715,11.599 C38.626,13.581 36.794,15.485 33.946,15.485 C32.889,15.485 31.827,14.888 31.729,13.979 C31.449,11.33 36.567,10.979 38.732,10.48 C38.732,10.652 38.739,10.606 38.715,11.599 L38.715,11.599 Z M43.614,15.051 C43.523,15.159 43.141,15.578 42.557,15.578 C41.619,15.578 41.436,14.879 41.436,13.758 L41.436,8.53 C41.436,5.472 37.933,5.108 35.352,5.108 C34.691,5.108 34.033,5.155 33.405,5.247 C32.8,5.318 32.219,5.447 31.689,5.632 L31.663,5.64 L31.665,5.641 C30.359,6.099 29.396,7.043 29.396,8.059 C29.396,8.813 30.129,9.589 31.029,9.589 C32.043,9.589 32.83,9.017 32.83,8.195 C32.83,7.465 32.422,6.963 31.577,6.756 C31.68,6.655 32.208,6.433 32.748,6.297 C33.442,6.117 34.551,6.084 35.071,6.084 C37.604,6.084 38.659,6.988 38.716,8.754 C38.733,9.601 38.716,9.719 38.716,9.719 C34.952,10.609 28.754,10.524 28.702,13.855 C28.677,15.385 30.428,16.751 32.68,16.751 C35.615,16.751 37.271,15.82 38.659,14.119 L38.731,14.119 C38.798,15.513 39.82,16.751 41.613,16.751 C43.583,16.751 44.179,15.733 44.29,15.654 L43.614,15.048 L43.614,15.051 Z" id="Shape"></path>
            <path d="M38.715,11.599 C38.626,13.581 36.794,15.485 33.946,15.485 C32.889,15.485 31.827,14.888 31.729,13.979 C31.449,11.33 36.567,10.979 38.732,10.48 C38.732,10.652 38.739,10.606 38.715,11.599 L38.715,11.599 Z M43.614,15.051 C43.523,15.159 43.141,15.578 42.557,15.578 C41.619,15.578 41.436,14.879 41.436,13.758 L41.436,8.53 C41.436,5.472 37.933,5.108 35.352,5.108 C34.691,5.108 34.033,5.155 33.405,5.247 C32.8,5.318 32.219,5.447 31.689,5.632 L31.663,5.64 L31.665,5.641 C30.359,6.099 29.396,7.043 29.396,8.059 C29.396,8.813 30.129,9.589 31.029,9.589 C32.043,9.589 32.83,9.017 32.83,8.195 C32.83,7.465 32.422,6.963 31.577,6.756 C31.68,6.655 32.208,6.433 32.748,6.297 C33.442,6.117 34.551,6.084 35.071,6.084 C37.604,6.084 38.659,6.988 38.716,8.754 C38.733,9.601 38.716,9.719 38.716,9.719 C34.952,10.609 28.754,10.524 28.702,13.855 C28.677,15.385 30.428,16.751 32.68,16.751 C35.615,16.751 37.271,15.82 38.659,14.119 L38.731,14.119 C38.798,15.513 39.82,16.751 41.613,16.751 C43.583,16.751 44.179,15.733 44.29,15.654 L43.614,15.048 L43.614,15.051 Z" id="Shape"></path>
        </g>
    </g>
</svg>