<?xml version="1.0" encoding="UTF-8"?>
<svg width="124px" height="12px" viewBox="0 0 124 12" version="1.1" xmlns="http://www.w3.org/2000/svg" xmlns:xlink="http://www.w3.org/1999/xlink">
    <!-- Generator: Sketch 43.2 (39069) - http://www.bohemiancoding.com/sketch -->
    <title>paulhewitt_plain</title>
    <desc>Created with Sketch.</desc>
    <defs></defs>
    <g id="Page-1" stroke="none" stroke-width="1" fill="none" fill-rule="evenodd">
        <g id="iPad-Pro-Portrait" transform="translate(-533.000000, -467.000000)" fill-rule="nonzero" fill="#848384">
            <g id="paulhewitt_plain" transform="translate(533.108108, 467.000000)">
                <path d="M8.70474863e-17,0.661621622 C0.102357672,0.610435435 0.21160559,0.574383623 0.324324324,0.554594595 C1.68486486,0.554594595 3.04702703,0.518918919 4.40594595,0.562702703 C5.11725581,0.56862979 5.82458867,0.669521525 6.50918919,0.862702703 C8.44054054,1.47081081 9.24324324,3.47837838 8.29135135,5.17459459 C7.72216216,6.18648649 6.76864865,6.63405405 5.67405405,6.76864865 C4.96378378,6.85621622 4.2372973,6.81081081 3.5172973,6.82216216 C3.42810811,6.82216216 3.33891892,6.82216216 3.2027027,6.80594595 L3.2027027,8.28324324 C3.2027027,8.88486486 3.22216216,9.48486486 3.22702703,10.0848649 C3.23189189,10.6848649 3.26432432,10.7221622 3.87567568,10.7221622 L4.4772973,10.7221622 C4.67837838,10.7221622 4.80162162,10.7983784 4.80162162,11.0383784 C4.80162162,11.5767568 4.79189189,11.5945946 4.26,11.592973 L0.53027027,11.592973 C0.392432432,11.592973 0.154054054,11.5475676 0.136216216,11.4810811 C0.0962784015,11.2667091 0.0962784015,11.0468044 0.136216216,10.8324324 C0.136216216,10.787027 0.298378378,10.74 0.390810811,10.7335135 C0.60972973,10.7172973 0.831891892,10.7335135 1.05081081,10.7237838 C1.42702703,10.7108108 1.47243243,10.667027 1.48702703,10.2745946 C1.50648649,9.71513514 1.52432432,9.15405405 1.52594595,8.59297297 L1.52594595,1.98162162 C1.52594595,1.89243243 1.50648649,1.80162162 1.50972973,1.71243243 C1.52108108,1.49513514 1.39945946,1.43675676 1.20972973,1.43837838 C0.919459459,1.43837838 0.627567568,1.44972973 0.338918919,1.43837838 C0.221921715,1.41306186 0.108208114,1.37443188 0,1.32324324 L8.70474863e-17,0.661621622 Z M3.2027027,3.66810811 L3.2027027,5.74216216 C3.2027027,5.92864865 3.25621622,6.02108108 3.45243243,6.02594595 C3.85135135,6.03567568 4.25351351,6.09081081 4.65081081,6.06972973 C5.74702703,6.01297297 6.65351351,5.22810811 6.78810811,4.25675676 C6.97297297,2.90432432 6.43459459,1.94594595 5.27027027,1.5227027 C4.68814734,1.32988954 4.06930445,1.27438794 3.46216216,1.36054054 C3.25783784,1.38162162 3.19459459,1.45621622 3.19783784,1.6572973 C3.20918919,2.32540541 3.2027027,2.99675676 3.2027027,3.66810811 Z" id="Shape"></path>
                <path d="M83.9513514,3.53189189 C83.4210811,5.03027027 82.9151351,6.46378378 82.4059459,7.8972973 C82.0232432,8.9718919 81.6383784,10.0464865 81.2513514,11.1210811 C81.2172973,11.2151351 81.1832432,11.3091892 81.1427027,11.4 C81.0437838,11.6205405 80.952973,11.8605405 80.6481081,11.8459459 C80.3432432,11.8313514 80.2945946,11.5913514 80.2183784,11.3724324 C79.1437837,8.28054054 78.0675676,5.18918919 76.9897297,2.09837838 C76.9475676,1.97513514 76.9005405,1.85351351 76.847027,1.73513514 C76.7762762,1.54075532 76.584605,1.41739602 76.3783784,1.43351351 L76.1983784,1.43351351 C75.6827027,1.43351351 75.5497297,1.27135135 75.6697297,0.750810811 C75.7248649,0.510810811 75.912973,0.551351351 76.0783784,0.552972973 C76.9297297,0.562702703 77.7810811,0.578918919 78.6324324,0.583783784 C78.8708108,0.583783784 79.1108108,0.559459459 79.3524324,0.551351351 C79.433393,0.536050408 79.5167329,0.561136195 79.5757952,0.618584932 C79.6348578,0.676033669 79.6622419,0.758646723 79.6491892,0.84 L79.6491892,1.08162162 C79.6637838,1.33621622 79.547027,1.43675676 79.2891892,1.43837838 C78.7832432,1.43837838 78.7443243,1.49837838 78.8983784,1.98 C79.6064865,4.22756757 80.3162162,6.47027027 81.0275676,8.70810811 C81.0502703,8.77945946 81.0810811,8.84756757 81.1394595,8.99351351 C81.2010811,8.81351351 81.2383784,8.70486486 81.2740541,8.59621622 C81.9421622,6.55945946 82.6086486,4.52324324 83.2735135,2.48756757 C83.3305909,2.33213805 83.3478723,2.16489774 83.3237838,2.00108108 C83.2378378,1.59891892 82.9994595,1.44324324 82.5583784,1.44 C82.1172973,1.43675676 81.8935135,1.11567568 82.0994595,0.72 C82.1941412,0.614078749 82.3303938,0.554838537 82.4724324,0.557837838 C83.4340541,0.557837838 84.3956757,0.575675676 85.3572973,0.582162162 C85.5956757,0.582162162 85.8437838,0.561081081 86.0772973,0.548108108 C86.2913514,0.536756757 86.4016216,0.637297297 86.3837838,0.852972973 L86.3837838,1.15459459 C86.3982874,1.23151738 86.3741011,1.3106587 86.3190746,1.36633245 C86.2640483,1.4220062 86.1851953,1.44711649 86.1081081,1.43351351 L85.6216216,1.43351351 C85.2745946,1.43351351 85.1708108,1.57783784 85.2745946,1.92 C85.6508108,3.14486486 86.0291891,4.36918918 86.4097297,5.59297297 C86.7264864,6.61459459 87.0437838,7.6372973 87.3616216,8.66108108 C87.3908108,8.75513514 87.4232432,8.84918919 87.48,9.01945946 C87.6421622,8.53297297 87.8043243,8.10648649 87.9372973,7.68 C88.4854054,5.92216216 89.0302703,4.16324324 89.5718919,2.40324324 C89.6237037,2.22041634 89.6616491,2.03394126 89.6854054,1.84540541 C89.7227027,1.58108108 89.5913514,1.44972973 89.3302703,1.44162162 L89.1486486,1.44162162 C88.6621622,1.44162162 88.6459459,1.41891892 88.6621622,0.927567568 C88.6621622,0.603243243 88.7318919,0.552972973 89.0610811,0.557837838 C89.8216216,0.572432432 90.5837838,0.585405405 91.3443243,0.591891892 C91.5064865,0.591891892 91.6832432,0.572432432 91.8535135,0.557837838 C92.1356757,0.535135135 92.1778378,0.703783784 92.1891892,0.935675676 C92.1891892,1.36216216 92.1518919,1.46108108 91.8648649,1.43513514 C91.3167568,1.37837838 91.1513514,1.59891892 90.972973,2.10810811 C89.8421622,5.15891891 88.7124324,8.20972974 87.5837838,11.2605405 C87.5544292,11.3766189 87.504445,11.4864743 87.4362162,11.5848649 C87.3356757,11.6918919 87.1881081,11.8362162 87.0713514,11.8264865 C86.9107143,11.7986393 86.7712573,11.6997082 86.6918919,11.5572973 C86.5472368,11.2169795 86.4216371,10.8688734 86.3156757,10.5145946 C85.5589189,8.26702703 84.8021622,6.01891892 84.0454054,3.77027027 C84.0227027,3.71675676 84,3.66162162 83.9513514,3.53189189 Z" id="Path"></path>
                <path d="M59.6172973,6.26756757 L53.8783784,6.26756757 L53.8783784,6.76864865 L53.8978378,10.1951351 C53.8978378,10.6621622 53.9562162,10.7205405 54.4102703,10.7221622 L54.8610811,10.7221622 C55.2,10.7221622 55.2437838,10.7789189 55.2421622,11.172973 C55.2421622,11.5410811 55.2,11.5897297 54.8610811,11.5897297 L51.107027,11.5897297 C50.7827027,11.5897297 50.7259459,11.5281081 50.7227027,11.1697297 C50.7194595,10.8113514 50.7827027,10.7254054 51.1167568,10.7221622 L51.6875676,10.7221622 C52.0654054,10.7221622 52.14,10.6491892 52.1497297,10.2648649 C52.1627027,9.75405405 52.1772973,9.24324324 52.1756757,8.73243243 C52.1756757,6.50756757 52.1702703,4.28324324 52.1594595,2.05945946 C52.1594595,1.51945946 52.0621622,1.43351351 51.5254054,1.43351351 L51.2010811,1.43351351 C50.7567568,1.43351351 50.5345946,1.10918919 50.7486486,0.715135135 C50.8544648,0.605725866 51.0019738,0.546722235 51.1540541,0.552972973 C51.9859459,0.552972973 52.8162162,0.587027027 53.6481081,0.591891892 C54.0972973,0.591891892 54.5481081,0.556216216 54.9989189,0.546486486 C55.3345946,0.546486486 55.38,0.598378378 55.3816216,0.961621622 C55.3816216,1.37027027 55.3443243,1.42216216 55.0151351,1.42864865 C54.7945946,1.42864865 54.5740541,1.43837838 54.3535135,1.42864865 C54.2425617,1.40716715 54.1279323,1.43855037 54.0433959,1.51355268 C53.9588593,1.58855499 53.9140476,1.69863081 53.9221622,1.81135135 C53.9075676,2.07243243 53.9043243,2.33189189 53.9027027,2.59297297 C53.8940541,3.45783783 53.8881081,4.31945946 53.8848649,5.17783784 C53.8848649,5.24594595 53.8945946,5.31405405 53.8994595,5.39675676 L59.6091892,5.39675676 C59.6091892,5.30756757 59.6286486,5.22162162 59.6286486,5.13567568 C59.6189189,4.08486486 59.6108108,3.02756757 59.5945946,1.98 C59.5945946,1.49351351 59.5183784,1.43027027 59.0351351,1.43027027 L58.7335135,1.43027027 C58.2194595,1.43027027 58.2291892,1.43027027 58.2194595,0.908108108 C58.2194595,0.632432432 58.3151351,0.54 58.5875676,0.543243243 C59.8086486,0.552972973 61.0313514,0.543243243 62.2524324,0.543243243 C62.5767568,0.543243243 62.6237838,0.591891892 62.6254054,0.96972973 C62.6254054,1.37513514 62.5897297,1.42054054 62.2508108,1.42540541 C62.0886486,1.42540541 61.9102703,1.43513514 61.74,1.42540541 C61.4643243,1.40594595 61.3572973,1.54540541 61.3524324,1.8 C61.3475676,2.05459459 61.332973,2.34 61.332973,2.61081081 C61.3405406,5.12648648 61.3502703,7.64162162 61.3621622,10.1562162 C61.3621622,10.6151351 61.4691892,10.7108108 61.9362162,10.7156757 L62.207027,10.7156757 C62.7454054,10.7156757 62.8686486,10.86 62.7308108,11.3854054 C62.6673238,11.4949034 62.5538042,11.5659291 62.4275676,11.5751351 C61.9264865,11.5751351 61.4254054,11.5443243 60.9259459,11.5459459 C60.1443243,11.5459459 59.3627027,11.5735135 58.5810811,11.5848649 C58.1513514,11.5848649 58.1205405,11.5572973 58.1189189,11.16 C58.1172973,10.7627027 58.152973,10.7172973 58.5972973,10.7172973 C58.7983784,10.7172973 58.9994595,10.7043243 59.1989189,10.7172973 C59.4745946,10.74 59.5832432,10.6086486 59.5897297,10.3524324 C59.5994595,9.83189189 59.6189189,9.31135135 59.6221622,8.78918919 C59.6205405,7.96702703 59.6172973,7.13513514 59.6172973,6.26756757 Z" id="Path"></path>
                <path d="M68.4324324,1.37837838 L68.4324324,5.51351351 C69.0502703,5.47459459 69.6486486,5.44378378 70.2437838,5.39513514 C70.4642522,5.38099276 70.6461246,5.21724036 70.6832432,4.99945946 C70.7481081,4.72702703 70.8048649,4.45297297 70.8454054,4.17567568 C70.9054054,3.79135135 71.1908108,3.93567568 71.4097297,3.92432432 C71.6286486,3.91297297 71.6983784,4.02972973 71.7,4.24864865 C71.7,5.27837838 71.7194595,6.30972973 71.7486486,7.33945946 C71.7583784,7.62972973 71.6383784,7.73513514 71.3756757,7.76594595 C71.112973,7.79675676 70.9654054,7.76594595 70.9037838,7.46594595 C70.6767568,6.35189189 70.667027,6.35027027 69.5156757,6.30648649 C69.1654054,6.29351351 68.8151351,6.30648649 68.4308108,6.30648649 C68.4308108,6.39243243 68.4097297,6.48810811 68.4097297,6.58378378 C68.4178378,7.61513514 68.4227027,8.64810811 68.4405405,9.67945946 C68.4502703,10.3118919 68.6918919,10.6118919 69.3145946,10.6994595 C70.2405405,10.8275676 71.1697297,10.8616216 72.0859459,10.6102703 C72.4877324,10.505716 72.8411345,10.2657233 73.0864865,9.93081081 C73.3767568,9.53513514 73.6864865,9.15405405 73.9702703,8.75351351 C74.1081081,8.55567568 74.2443243,8.48756757 74.4713514,8.6027027 C74.6983784,8.71783784 74.8167568,8.8427027 74.7097297,9.12 C74.447027,9.81243243 74.1989189,10.5113514 73.9572973,11.2118919 C73.8880625,11.4730858 73.6369035,11.6432928 73.3686486,11.6108108 C71.5848649,11.5881081 69.8010811,11.5735135 68.0172973,11.567027 C67.2162162,11.567027 66.4151351,11.5945946 65.6140541,11.6059459 C65.2783784,11.6059459 65.2297297,11.5524324 65.2264865,11.1908108 C65.2264865,10.7967568 65.2654054,10.7432432 65.6043243,10.7383784 C65.8540541,10.7383784 66.1054054,10.7237838 66.3551351,10.7383784 C66.6048649,10.752973 66.7248649,10.6248649 66.7232432,10.3556757 C66.7151351,8.03027027 66.7232432,5.70486486 66.7151351,3.3827027 C66.7151351,2.91081081 66.7151351,2.43891892 66.6875676,1.97027027 C66.6648649,1.55189189 66.5594595,1.46756757 66.1475676,1.46108108 L65.6367568,1.46108108 C65.2864865,1.46108108 65.2556757,1.41405405 65.2572973,0.974594595 C65.2572973,0.617837838 65.3043243,0.570810811 65.652973,0.572432432 C67.7178378,0.585405405 69.7821621,0.596756757 71.8459459,0.606486486 C72.2254054,0.606486486 72.6064865,0.59027027 72.9810811,0.572432432 C73.0651784,0.553068271 73.1535253,0.568018878 73.2265686,0.613975305 C73.299612,0.659931733 73.3513279,0.733104024 73.3702703,0.817297297 C73.6216216,1.56 73.8518919,2.32540541 74.1081081,3.08108108 C74.1956757,3.34378378 74.0513514,3.44108108 73.86,3.54486486 C73.6686486,3.64864865 73.5535135,3.57891892 73.4286486,3.42324324 C73.0783784,2.98540541 72.7194595,2.55297297 72.3518919,2.12594595 C71.9690997,1.67601412 71.4069397,1.41838222 70.8162162,1.42216216 C70.1675676,1.41081081 69.5189189,1.38810811 68.8702703,1.37189189 C68.7210811,1.37513514 68.5832432,1.37837838 68.4324324,1.37837838 Z" id="Path"></path>
                <path d="M24.2448649,5.28972973 C24.2805405,6.31135135 24.3032432,7.33135135 24.3535135,8.35135135 C24.4345946,10.0410811 25.452973,10.9702703 27.1540541,10.9005405 C28.0767568,10.8632432 28.9216216,10.6183784 29.4648649,9.78648649 C29.8078356,9.2260374 29.9771178,8.5765578 29.9513514,7.92 C29.9513514,6.05513514 29.9318919,4.19027027 29.9172973,2.32702703 C29.9172973,2.23783784 29.9059459,2.14702703 29.8962162,2.05783784 C29.8491892,1.57945946 29.687027,1.43513514 29.1989189,1.43351351 C29.0772973,1.43351351 28.9572973,1.42540541 28.8372973,1.43351351 C28.5583784,1.45621622 28.4367568,1.35081081 28.4432432,1.05567568 C28.452973,0.548108108 28.4545946,0.551351351 28.9735135,0.556216216 C29.9935135,0.565945946 31.0151351,0.556216216 32.0351351,0.556216216 C32.1778378,0.556216216 32.4227027,0.621081081 32.4421622,0.698918919 C32.474706,0.911904924 32.4675585,1.12907415 32.4210811,1.33945946 C32.4210811,1.37837838 32.2913514,1.41567568 32.2167568,1.42540541 C32.108765,1.43249744 32.0004242,1.43249744 31.8924324,1.42540541 C31.2648649,1.42540541 31.1302703,1.55513514 31.1237838,2.17459459 C31.1140541,3.26756757 31.1237838,4.36054054 31.092973,5.45189189 C31.0621622,6.54324324 31.0637838,7.62162162 30.9032432,8.68540541 C30.6437838,10.3994595 29.3643243,11.5232432 27.6389189,11.7210811 C26.8823711,11.8124851 26.1161202,11.783477 25.3686486,11.6351351 C23.8410811,11.327027 22.9362162,10.3978378 22.7481081,8.8572973 C22.6543711,8.04978597 22.604568,7.23777892 22.5989189,6.42486486 C22.5762162,5.01243243 22.5989189,3.59837838 22.5989189,2.18432432 C22.5989189,2.06432432 22.5875676,1.94432432 22.5843243,1.82432432 C22.597423,1.70670968 22.5536796,1.58989452 22.4665498,1.50981208 C22.3794203,1.42972964 22.2593387,1.39597038 22.1432432,1.41891892 C21.9437838,1.42702703 21.7427027,1.41891892 21.5432432,1.41891892 C21.2497297,1.41081081 21.2027027,1.33459459 21.1978378,0.953513514 C21.1978378,0.695675676 21.2562162,0.518918919 21.5627027,0.535135135 C21.972973,0.556216216 22.3832432,0.585405405 22.7935135,0.582162162 C23.6643243,0.582162162 24.5351351,0.548108108 25.4075676,0.543243243 C25.5551351,0.543243243 25.8081081,0.577297297 25.8324324,0.651891892 C25.8829738,0.864573955 25.8890465,1.08540224 25.8502703,1.30054054 C25.8502703,1.35081081 25.6881081,1.41081081 25.6037838,1.4172973 C25.3751351,1.43513514 25.1432432,1.4172973 24.912973,1.4172973 C24.5091892,1.4172973 24.3081081,1.59567568 24.3048649,1.99621622 C24.2918919,3.08756757 24.3048649,4.18054054 24.3048649,5.27189189 L24.2448649,5.28972973 Z" id="Path"></path>
                <path d="M18.0405405,11.5913514 L16.2162162,11.5913514 C15.8659459,11.5913514 15.8237838,11.5394595 15.8221622,11.1518919 C15.8205405,10.7643243 15.8627027,10.727027 16.2227027,10.7221622 C16.8827027,10.7221622 16.907027,10.692973 16.7205405,10.0605405 C16.4756757,9.23675676 16.2048649,8.41945946 15.9583784,7.59405405 C15.9,7.40108108 15.7962162,7.3572973 15.612973,7.35891892 C14.6205405,7.36540541 13.6286486,7.36540541 12.6372973,7.35891892 C12.4758248,7.33150108 12.3209178,7.43453556 12.2837838,7.59405405 C12.0048649,8.40486486 11.712973,9.21567568 11.4291892,10.0264865 C11.3886486,10.14 11.3740541,10.26 11.3416216,10.3767568 C11.2783784,10.6005405 11.3821622,10.7010811 11.5945946,10.7108108 C11.8443243,10.7205405 12.0956757,10.727027 12.3454054,10.7108108 C12.6697297,10.6994595 12.6940541,10.8924324 12.6875676,11.1421622 C12.6810811,11.3918919 12.6875676,11.5881081 12.3632432,11.5848649 L9.12,11.5848649 C8.84594595,11.5848649 8.81189189,11.4227027 8.81513514,11.207027 C8.81837838,10.9913514 8.77297297,10.74 9.10378378,10.7205405 L9.40378378,10.7205405 C9.99891892,10.7205405 10.1545946,10.6281081 10.3767568,10.0718919 C10.9713514,8.51189189 11.5664865,6.94972974 12.1621622,5.38540541 C12.5805405,4.28108108 12.9843243,3.17189189 13.3945946,2.06432432 C13.4805405,1.8372973 13.5454054,1.62486486 13.3945946,1.38162162 C13.2713514,1.18378378 13.4237838,1.07351351 13.607027,0.972972973 C14.0154395,0.752008174 14.410205,0.506701218 14.7891892,0.238378378 C15.0810811,0.0259459459 15.2432432,0.047027027 15.3567568,0.403783784 C16.0702703,2.57027027 16.7756757,4.74162162 17.4972973,6.90648649 C17.8216216,7.87945946 18.1637838,8.83621622 18.5156757,9.79459459 C18.8027027,10.5762162 19.0264865,10.7156757 19.8827027,10.7221622 C20.2524324,10.7221622 20.3156757,10.7918919 20.3156757,11.1648649 C20.3156757,11.5378378 20.2524324,11.5913514 19.8713514,11.5913514 L18.0405405,11.5913514 Z M14.2556757,2.37243243 L14.1843243,2.35945946 L12.6648649,6.51081081 L15.5837838,6.51081081 L14.2556757,2.37243243 Z" id="Shape"></path>
                <path d="M104.534595,1.38648649 C103.743243,1.44648649 102.953514,1.4772973 102.171892,1.57945946 C101.910831,1.6350797 101.67772,1.78091747 101.513514,1.99135135 C101.252423,2.35660866 101.021912,2.74278328 100.824324,3.14594595 C100.662162,3.45243243 100.563243,3.49135135 100.195135,3.36162162 C99.9194595,3.26594595 100.003784,3.07783784 100.052432,2.89459459 C100.268649,2.06324324 100.48973,1.23135135 100.715676,0.398918919 C100.806486,0.0567567568 101.002703,-0.0616216216 101.247568,0.142702703 C101.662703,0.48972973 102.141081,0.528648649 102.632432,0.528648649 C104.704865,0.528648649 106.777297,0.528648649 108.848108,0.491351351 C109.154401,0.462036825 109.44999,0.3633225 109.712432,0.202702703 C110.156757,-0.0340540541 110.296216,0.012972973 110.375676,0.501081081 C110.510811,1.33351351 110.646486,2.16378378 110.782703,2.99189189 C110.815135,3.19621622 110.816757,3.36486486 110.555676,3.42972973 C110.294595,3.49459459 110.148649,3.48486486 110.03027,3.21243243 C109.851892,2.80054054 109.634595,2.40162162 109.417297,2.01081081 C109.288835,1.76577756 109.044297,1.60316015 108.768649,1.57945946 C107.957838,1.50810811 107.137297,1.44972973 106.289189,1.38324324 C106.279459,1.54540541 106.266486,1.6427027 106.266486,1.73837838 L106.266486,10.0962162 C106.266486,10.6491892 106.342703,10.7221622 106.884324,10.7221622 L107.575135,10.7221622 C107.928649,10.7335135 107.873514,10.9994595 107.883243,11.2264865 C107.892973,11.4535135 107.821622,11.5962162 107.558919,11.5897297 C106.837297,11.5718919 106.115676,11.5491892 105.395676,11.5491892 C104.704865,11.5491892 104.014054,11.5767568 103.323243,11.5881081 C102.945405,11.5881081 102.9,11.5410811 102.901622,11.1454054 C102.903243,10.7497297 102.942162,10.7221622 103.305405,10.7205405 L104.177838,10.7205405 C104.395135,10.7205405 104.536216,10.6183784 104.537838,10.3735135 C104.54973,7.43837838 104.561622,4.50270271 104.573514,1.56648649 C104.565334,1.5055495 104.55232,1.44535969 104.534595,1.38648649 L104.534595,1.38648649 Z" id="Path"></path>
                <path d="M116.964324,1.38162162 C116.117838,1.44648649 115.318378,1.4772973 114.531892,1.58756757 C114.26118,1.65326027 114.022306,1.81231785 113.857297,2.03675676 C113.609035,2.38678982 113.391985,2.75794469 113.208649,3.14594595 C113.046486,3.45243243 112.973514,3.48162162 112.608649,3.37135135 C112.324865,3.28378378 112.376757,3.10378378 112.433514,2.89783784 C112.654054,2.06594595 112.864865,1.23405405 113.091892,0.402162162 C113.189189,0.0567567568 113.378919,-0.0632432432 113.625405,0.141081081 C114.038919,0.488108108 114.517297,0.528648649 115.008649,0.528648649 C117.081081,0.528648649 119.153514,0.528648649 121.224324,0.48972973 C121.532432,0.48972973 121.853514,0.327567568 122.140541,0.173513514 C122.528108,-0.0210810811 122.683784,0.0372972973 122.753514,0.468648649 C122.887568,1.31837838 123.024865,2.16864864 123.165405,3.01945946 C123.199459,3.22216216 123.175135,3.37135135 122.938378,3.42810811 C122.701622,3.48486486 122.545946,3.51891892 122.432432,3.24324324 C122.253198,2.81958298 122.041768,2.41027714 121.8,2.01891892 C121.673958,1.82761581 121.484454,1.68692359 121.264865,1.62162162 C120.413514,1.41567568 119.541081,1.42702703 118.634595,1.44486486 L118.634595,1.78378378 L118.634595,9.02918919 C118.634595,9.42 118.645946,9.80918919 118.655676,10.2 C118.655676,10.6216216 118.756216,10.7140541 119.168108,10.7172973 L119.920541,10.7172973 C120.275676,10.7043243 120.244865,10.9459459 120.257838,11.1859459 C120.270811,11.4259459 120.225405,11.6027027 119.922162,11.5897297 C119.391892,11.567027 118.86,11.5459459 118.32973,11.5475676 C117.449189,11.5475676 116.567027,11.5751351 115.686486,11.5864865 C115.345946,11.5864865 115.282703,11.5151351 115.284324,11.1486486 C115.285946,10.7821622 115.345946,10.7205405 115.691351,10.7189189 L116.502162,10.7189189 C116.777838,10.7189189 116.927027,10.6135135 116.927027,10.3086486 C116.927027,9.36810811 116.957838,8.42594595 116.961081,7.48378378 L116.961081,1.83243243 L116.964324,1.38162162 Z" id="Path"></path>
                <path d="M37.5,10.7027027 C38.472973,10.7027027 39.4118919,10.6540541 40.3475676,10.7172973 C41.2427027,10.7772973 41.8183784,10.3735135 42.2416216,9.66162162 C42.4962162,9.23189189 42.7281081,8.78918919 42.9502703,8.34162162 C43.0475676,8.14540541 43.1318919,8.0172973 43.38,8.11297297 C43.6281081,8.20864865 43.7043243,8.31243243 43.6378378,8.58162162 C43.3978378,9.49297297 43.1837838,10.4091892 42.96,11.3237838 C42.9389189,11.4097297 42.9145946,11.4859459 42.8967568,11.5589189 L38.9367568,11.5589189 C37.5454054,11.5589189 36.1535136,11.5675676 34.7610811,11.5848649 C34.2843243,11.5848649 34.0881081,11.3254054 34.2745946,10.8843243 C34.3394309,10.7921384 34.4413231,10.7328988 34.5535135,10.7221622 C34.8308108,10.6978378 35.112973,10.7108108 35.3935135,10.7010811 C35.6172973,10.7010811 35.7291892,10.5956757 35.7291892,10.3459459 C35.7291892,7.56972973 35.7372973,4.79513514 35.7372973,2.02054054 C35.7372973,1.45945946 35.6918919,1.42540541 35.1372973,1.42540541 C35.0075676,1.42540541 34.8762162,1.4172973 34.7464865,1.42540541 C34.4578378,1.44972973 34.3524324,1.31675676 34.3524324,1.03621622 C34.3524324,0.564324324 34.3848649,0.54972973 34.8681081,0.54972973 C36.1102703,0.557837838 37.3508108,0.54972973 38.5978378,0.54972973 C38.7437838,0.54972973 38.987027,0.588648649 39.0162162,0.66972973 C39.0722298,0.867966553 39.07725,1.07714215 39.0308108,1.27783784 C39.0194595,1.34108108 38.8443243,1.40918919 38.7389189,1.4172973 C38.46,1.43675676 38.1778378,1.4172973 37.8972973,1.4172973 C37.5502703,1.4172973 37.5048649,1.46432432 37.4983784,1.82108108 C37.4854054,2.57189189 37.4659459,3.3227027 37.4659459,4.07513514 C37.4659459,6.18972973 37.4708108,8.30432432 37.4805405,10.4189189 C37.4789189,10.5048649 37.4886486,10.572973 37.5,10.7027027 Z" id="Path"></path>
                <path d="M95.0659459,6.06648649 L95.0659459,1.98162162 C95.0659459,1.53405405 94.9621622,1.44162162 94.5113514,1.43513514 L93.7297297,1.43513514 C93.3437838,1.43513514 93.2983784,1.37675676 93.3097297,0.930810811 C93.3178378,0.606486486 93.3891892,0.546486486 93.7362162,0.551351351 C94.867027,0.565405406 95.9978379,0.576756757 97.1286486,0.585405405 C97.3572973,0.585405405 97.5875676,0.570810811 97.8178378,0.54972973 C98.1178378,0.523783784 98.2005405,0.687567568 98.2021622,0.95027027 C98.2021622,1.33783784 98.147027,1.42702703 97.8437838,1.43675676 L97.1821622,1.43675676 C97.0862346,1.42339641 96.9895529,1.45543854 96.9205922,1.52344589 C96.8516314,1.59145324 96.8182466,1.68767961 96.8302703,1.78378378 L96.8302703,9.41351351 L96.8302703,10.3151351 C96.8302703,10.572973 96.9454054,10.7091892 97.2097297,10.7091892 C97.4740541,10.7091892 97.7108108,10.7237838 97.9605405,10.7189189 C98.2962162,10.7189189 98.2848649,10.9394595 98.2848649,11.1697297 C98.2848649,11.4 98.2848649,11.5978378 97.9605405,11.5897297 C97.26,11.5702703 96.5594595,11.5491892 95.8524324,11.5491892 C95.1454054,11.5491892 94.4708108,11.5783784 93.7816216,11.5864865 C93.42,11.5864865 93.3940541,11.5556757 93.3956757,11.1518919 C93.3972973,10.7481081 93.432973,10.7237838 93.7913514,10.7205405 L94.5421622,10.7205405 C94.9410811,10.7059459 95.0416216,10.6086486 95.0432432,10.212973 L95.0432432,6.06810811 L95.0659459,6.06648649 Z" id="Path"></path>
            </g>
        </g>
    </g>
</svg>