<?xml version="1.0" encoding="UTF-8"?>
<svg width="760px" height="111px" viewBox="0 0 760 111" version="1.1" xmlns="http://www.w3.org/2000/svg" xmlns:xlink="http://www.w3.org/1999/xlink">
    <!-- Generator: Sketch 53.2 (72643) - https://sketchapp.com -->
    <title>Asset 1</title>
    <desc>Created with Sketch.</desc>
    <g id="Page-1" stroke="none" stroke-width="1" fill="none" fill-rule="evenodd">
        <g id="Asset-1" fill-rule="nonzero">
            <path d="M5.36792832e-16,4.08 C0.631205644,3.76435185 1.30490114,3.54203234 2,3.42 C10.39,3.42 18.79,3.2 27.17,3.47 C31.5564108,3.50655037 35.9182968,4.12871607 40.14,5.32 C52.05,9.07 57,21.45 51.13,31.91 C47.62,38.15 41.74,40.91 34.99,41.74 C30.61,42.28 26.13,42 21.69,42.07 C21.14,42.07 20.59,42.07 19.75,41.97 C19.75,45.07 19.75,48.08 19.75,51.08 C19.75,54.79 19.87,58.49 19.9,62.19 C19.93,65.89 20.13,66.12 23.9,66.12 C25.14,66.12 26.37,66.12 27.61,66.12 C28.85,66.12 29.61,66.59 29.61,68.07 C29.61,71.39 29.55,71.5 26.27,71.49 C18.61,71.49 10.96,71.49 3.27,71.49 C2.42,71.49 0.95,71.21 0.84,70.8 C0.593716809,69.4780396 0.593716809,68.1219604 0.84,66.8 C0.84,66.52 1.84,66.23 2.41,66.19 C3.76,66.09 5.13,66.19 6.48,66.13 C8.8,66.05 9.08,65.78 9.17,63.36 C9.29,59.91 9.4,56.45 9.41,52.99 C9.41,39.4 9.41,25.81 9.41,12.22 C9.41,11.67 9.29,11.11 9.31,10.56 C9.38,9.22 8.63,8.86 7.46,8.87 C5.67,8.87 3.87,8.94 2.09,8.87 C1.36851724,8.71388145 0.667283372,8.47566324 0,8.16 L5.36792832e-16,4.08 Z M19.75,22.62 C19.75,26.89 19.75,31.15 19.75,35.41 C19.75,36.56 20.08,37.13 21.29,37.16 C23.75,37.22 26.23,37.56 28.68,37.43 C35.44,37.08 41.03,32.24 41.86,26.25 C43,17.91 39.68,12 32.5,9.39 C28.9102419,8.20098552 25.0940441,7.85872563 21.35,8.39 C20.09,8.52 19.7,8.98 19.72,10.22 C19.79,14.34 19.75,18.48 19.75,22.62 Z" id="Shape" fill="#000000"></path>
            <path d="M401.33,110.16 C397.79,108.35 396.33,105.04 397.06,100.16 C397.226324,98.8170385 397.636377,97.5157134 398.27,96.32 C399.096959,94.8259586 400.676288,93.9053842 402.383843,93.922084 C404.091397,93.9387838 405.652419,94.8900707 406.45,96.4 C408.298387,99.9213833 408.272142,104.131933 406.38,107.63 C405.81,108.74 404.28,109.35 403.18,110.19 L401.33,110.16 Z M405.75,101.92 C405.575,100.464172 405.23963,99.0321446 404.75,97.65 C404.292236,96.7577134 403.439247,96.1346611 402.45,95.97 C401.399613,96.1227183 400.479671,96.7544856 399.96,97.68 C398.735588,100.419409 398.735588,103.550591 399.96,106.29 C400.451161,107.22865 401.361941,107.875489 402.41,108.03 C403.442654,107.827431 404.32639,107.164629 404.81,106.23 C405.285184,104.833467 405.600531,103.38757 405.75,101.92 Z" id="Shape" fill="#000000"></path>
            <path d="M416.17,110.16 C412.61,108.34 411.17,105.07 411.88,100.16 C412.046453,98.8138929 412.456465,97.5093097 413.09,96.31 C413.914013,94.8152514 415.49214,93.8935807 417.198889,93.9102931 C418.905638,93.9270054 420.465415,94.8794022 421.26,96.39 C423.114619,99.9045236 423.095868,104.112145 421.21,107.61 C420.64,108.72 419.11,109.34 418.02,110.18 L416.17,110.16 Z M420.61,102.16 C420.393034,100.599286 420.017767,99.0647101 419.49,97.58 C418.986454,96.7076208 418.107915,96.1170062 417.11,95.98 C416.159005,96.0862125 415.315731,96.6397272 414.84,97.47 C413.494864,100.361201 413.494864,103.698799 414.84,106.59 C415.311672,107.415002 416.146338,107.967736 417.09,108.08 C418.07859,107.932547 418.948661,107.348828 419.46,106.49 C419.996879,105.081565 420.382382,103.620006 420.61,102.13 L420.61,102.16 Z" id="Shape" fill="#000000"></path>
            <path d="M340.13,110.16 L336.94,108.16 L338.63,106.61 L338.63,107.16 C340.11,107.44 341.63,108.02 343.06,107.87 C343.82,107.79 344.81,106.53 345.01,105.65 C345.14,105.09 344.12,104.05 343.39,103.58 C342.334218,103.086444 341.248794,102.658954 340.14,102.3 C338.349491,101.591863 337.281224,99.7451675 337.56,97.84 C337.738022,95.9242623 339.175255,94.3641897 341.07,94.03 C343.27,93.63 345.47,93.57 347.28,95.58 L345.88,97.13 L345.74,96.6 C344.513124,96.216734 343.235347,96.0211902 341.95,96.02 C340.991175,96.3108471 340.240847,97.0611752 339.95,98.02 C339.81,98.66 340.66,99.72 341.34,100.28 C342.073912,100.731147 342.889387,101.033552 343.74,101.17 C345.74,101.75 347.25,102.72 347.48,104.98 C347.69,107.04 346.66,108.63 344.42,109.78 C344.2215,109.90079 344.031095,110.034407 343.85,110.18 L340.13,110.16 Z" id="Path" fill="#000000"></path>
            <path d="M517.7,21.78 C514.43,31.02 511.31,39.86 508.17,48.7 C505.81,55.3266667 503.436667,61.9533333 501.05,68.58 C500.84,69.16 500.63,69.74 500.38,70.3 C499.77,71.66 499.21,73.14 497.33,73.05 C495.45,72.96 495.15,71.48 494.68,70.13 C488.053333,51.0633333 481.416667,32 474.77,12.94 C474.51,12.18 474.22,11.43 473.89,10.7 C473.453703,9.50132447 472.271731,8.74060876 471,8.84 C470.63,8.84 470.26,8.84 469.89,8.84 C466.71,8.84 465.89,7.84 466.63,4.63 C466.97,3.15 468.13,3.4 469.15,3.41 C474.4,3.47 479.65,3.57 484.9,3.6 C486.37,3.6 487.85,3.45 489.34,3.4 C489.839257,3.30564418 490.353186,3.46033987 490.717404,3.81460708 C491.081623,4.16887429 491.250492,4.67832146 491.17,5.18 C491.17,5.68 491.17,6.18 491.17,6.67 C491.26,8.24 490.54,8.86 488.95,8.87 C485.83,8.87 485.59,9.24 486.54,12.21 C490.906667,26.07 495.283333,39.9 499.67,53.7 C499.81,54.14 500,54.56 500.36,55.46 C500.74,54.35 500.97,53.68 501.19,53.01 C505.31,40.45 509.42,27.8933333 513.52,15.34 C513.871977,14.381518 513.978546,13.3502027 513.83,12.34 C513.3,9.86 511.83,8.9 509.11,8.88 C506.39,8.86 505.01,6.88 506.28,4.44 C506.863871,3.78681895 507.704095,3.42150431 508.58,3.44 C514.51,3.44 520.44,3.55 526.37,3.59 C527.84,3.59 529.37,3.46 530.81,3.38 C532.13,3.31 532.81,3.93 532.7,5.26 C532.7,5.88 532.7,6.5 532.7,7.12 C532.789439,7.59435715 532.64029,8.08239531 532.30096,8.42571677 C531.961631,8.76903823 531.475371,8.923885 531,8.84 C530,8.84 529,8.84 528,8.84 C525.86,8.84 525.22,9.73 525.86,11.84 C528.18,19.3933333 530.513333,26.9433333 532.86,34.49 C534.813333,40.79 536.77,47.0966667 538.73,53.41 C538.91,53.99 539.11,54.57 539.46,55.62 C540.46,52.62 541.46,49.99 542.28,47.36 C545.66,36.52 549.02,25.6733333 552.36,14.82 C552.679506,13.6925674 552.913503,12.5426378 553.06,11.38 C553.29,9.75 552.48,8.94 550.87,8.89 L549.75,8.89 C546.75,8.89 546.65,8.75 546.75,5.72 C546.75,3.72 547.18,3.41 549.21,3.44 C553.9,3.53 558.6,3.61 563.29,3.65 C564.29,3.65 565.38,3.53 566.43,3.44 C568.17,3.3 568.43,4.34 568.5,5.77 C568.5,8.4 568.27,9.01 566.5,8.85 C563.12,8.5 562.1,9.86 561,13 C554.026667,31.8133333 547.06,50.6266667 540.1,69.44 C539.91898,70.1558163 539.610744,70.8332582 539.19,71.44 C538.57,72.1 537.66,72.99 536.94,72.93 C535.949405,72.7582754 535.08942,72.1482004 534.6,71.27 C533.70796,69.1713733 532.933429,67.0247195 532.28,64.84 C527.613333,50.98 522.946667,37.1166667 518.28,23.25 C518.14,22.92 518,22.58 517.7,21.78 Z" id="Path" fill="#000000"></path>
            <path d="M367.64,38.65 L332.25,38.65 L332.25,41.74 L332.37,62.87 C332.37,65.75 332.73,66.11 335.53,66.12 C336.46,66.12 337.39,66.12 338.31,66.12 C340.4,66.12 340.67,66.47 340.66,68.9 C340.66,71.17 340.4,71.47 338.31,71.47 L315.16,71.47 C313.16,71.47 312.81,71.09 312.79,68.88 C312.77,66.67 313.16,66.14 315.22,66.12 C316.4,66.12 317.57,66.12 318.74,66.12 C321.07,66.12 321.53,65.67 321.59,63.3 C321.67,60.15 321.76,57 321.75,53.85 C321.75,40.13 321.716667,26.4133333 321.65,12.7 C321.65,9.37 321.05,8.84 317.74,8.84 L315.74,8.84 C313,8.84 311.63,6.84 312.95,4.41 C313.602533,3.73530951 314.512172,3.37145378 315.45,3.41 C320.58,3.41 325.7,3.62 330.83,3.65 C333.6,3.65 336.38,3.43 339.16,3.37 C341.23,3.37 341.51,3.69 341.52,5.93 C341.52,8.45 341.29,8.77 339.26,8.81 C337.9,8.81 336.54,8.87 335.18,8.81 C334.495797,8.67753076 333.788916,8.87106063 333.267608,9.33357486 C332.746299,9.79608909 332.46996,10.47489 332.52,11.17 C332.43,12.78 332.41,14.38 332.4,15.99 C332.346667,21.3233333 332.31,26.6366667 332.29,31.93 C332.29,32.35 332.35,32.77 332.38,33.28 L367.59,33.28 C367.59,32.73 367.71,32.2 367.71,31.67 C367.65,25.19 367.6,18.67 367.5,12.21 C367.5,9.21 367.03,8.82 364.05,8.82 L362.19,8.82 C359.02,8.82 359.08,8.82 359.02,5.6 C359.02,3.9 359.61,3.33 361.29,3.35 C368.82,3.41 376.36,3.35 383.89,3.35 C385.89,3.35 386.18,3.65 386.19,5.98 C386.19,8.48 385.97,8.76 383.88,8.79 C382.88,8.79 381.78,8.85 380.73,8.79 C379.03,8.67 378.37,9.53 378.34,11.1 C378.31,12.67 378.22,14.43 378.22,16.1 C378.266667,31.6133333 378.326667,47.1233333 378.4,62.63 C378.4,65.46 379.06,66.05 381.94,66.08 L383.61,66.08 C386.93,66.08 387.69,66.97 386.84,70.21 C386.448497,70.8852379 385.748459,71.3232297 384.97,71.38 C381.88,71.38 378.79,71.19 375.71,71.2 C370.89,71.2 366.07,71.37 361.25,71.44 C358.6,71.44 358.41,71.27 358.4,68.82 C358.39,66.37 358.61,66.09 361.35,66.09 C362.59,66.09 363.83,66.01 365.06,66.09 C366.76,66.23 367.43,65.42 367.47,63.84 C367.53,60.63 367.65,57.42 367.67,54.2 C367.66,49.13 367.64,44 367.64,38.65 Z" id="Path" fill="#000000"></path>
            <path d="M422,8.5 L422,34 C425.81,33.76 429.5,33.57 433.17,33.27 C434.529555,33.1827887 435.651102,32.1729822 435.88,30.83 C436.28,29.15 436.63,27.46 436.88,25.75 C437.25,23.38 439.01,24.27 440.36,24.2 C441.71,24.13 442.14,24.85 442.15,26.2 C442.15,32.55 442.27,38.91 442.45,45.26 C442.51,47.05 441.77,47.7 440.15,47.89 C438.53,48.08 437.62,47.89 437.24,46.04 C435.84,39.17 435.78,39.16 428.68,38.89 C426.52,38.81 424.36,38.89 421.99,38.89 C421.99,39.42 421.86,40.01 421.86,40.6 C421.91,46.96 421.94,53.33 422.05,59.69 C422.11,63.59 423.6,65.44 427.44,65.98 C433.15,66.77 438.88,66.98 444.53,65.43 C447.007683,64.7852484 449.186996,63.3052936 450.7,61.24 C452.49,58.8 454.4,56.45 456.15,53.98 C457,52.76 457.84,52.34 459.24,53.05 C460.64,53.76 461.37,54.53 460.71,56.24 C459.09,60.51 457.56,64.82 456.07,69.14 C455.643052,70.7506957 454.094238,71.8003056 452.44,71.6 C441.44,71.46 430.44,71.37 419.44,71.33 C414.5,71.33 409.56,71.5 404.62,71.57 C402.55,71.57 402.25,71.24 402.23,69.01 C402.23,66.58 402.47,66.25 404.56,66.22 C406.1,66.22 407.65,66.13 409.19,66.22 C410.73,66.31 411.47,65.52 411.46,63.86 C411.41,49.52 411.46,35.18 411.41,20.86 C411.41,17.95 411.41,15.04 411.24,12.15 C411.1,9.57 410.45,9.05 407.91,9.01 C406.86,9.01 405.81,9.01 404.76,9.01 C402.6,9.01 402.41,8.72 402.42,6.01 C402.42,3.81 402.71,3.52 404.86,3.53 C417.593333,3.61 430.323333,3.68 443.05,3.74 C445.39,3.74 447.74,3.64 450.05,3.53 C450.5686,3.41058767 451.113406,3.50278308 451.56384,3.78618105 C452.014274,4.06957902 452.333189,4.52080815 452.45,5.04 C454,9.62 455.42,14.34 457,19 C457.54,20.62 456.65,21.22 455.47,21.86 C454.29,22.5 453.58,22.07 452.81,21.11 C450.65,18.41 448.436667,15.7433333 446.17,13.11 C443.809448,10.3354204 440.342795,8.74669035 436.7,8.77 C432.7,8.7 428.7,8.56 424.7,8.46 C423.78,8.48 422.93,8.5 422,8.5 Z" id="Path" fill="#000000"></path>
            <path d="M149.51,32.62 C149.73,38.92 149.87,45.21 150.18,51.5 C150.68,61.92 156.96,67.65 167.45,67.22 C173.14,66.99 178.35,65.48 181.7,60.35 C183.814986,56.8938973 184.858893,52.8887731 184.7,48.84 C184.7,37.34 184.58,25.84 184.49,14.35 C184.49,13.8 184.42,13.24 184.36,12.69 C184.07,9.74 183.07,8.85 180.06,8.84 C179.31,8.84 178.57,8.79 177.83,8.84 C176.11,8.98 175.36,8.33 175.4,6.51 C175.46,3.38 175.47,3.4 178.67,3.43 C184.96,3.49 191.26,3.43 197.55,3.43 C198.43,3.43 199.94,3.83 200.06,4.31 C200.260687,5.6234137 200.216611,6.96262395 199.93,8.26 C199.93,8.5 199.13,8.73 198.67,8.79 C198.004051,8.8337342 197.335949,8.8337342 196.67,8.79 C192.8,8.79 191.97,9.59 191.93,13.41 C191.87,20.15 191.93,26.89 191.74,33.62 C191.55,40.35 191.56,47 190.57,53.56 C188.97,64.13 181.08,71.06 170.44,72.28 C165.774622,72.8436579 161.049408,72.6647748 156.44,71.75 C147.02,69.85 141.44,64.12 140.28,54.62 C139.701955,49.6403468 139.394836,44.63297 139.36,39.62 C139.22,30.91 139.36,22.19 139.36,13.47 C139.36,12.73 139.29,11.99 139.27,11.25 C139.350775,10.5247097 139.081024,9.80434952 138.543724,9.31050782 C138.006425,8.81666611 137.265922,8.60848404 136.55,8.75 C135.32,8.8 134.08,8.75 132.85,8.75 C131.04,8.7 130.75,8.23 130.72,5.88 C130.72,4.29 131.08,3.2 132.97,3.3 C135.5,3.43 138.03,3.61 140.56,3.59 C145.93,3.59 151.3,3.38 156.68,3.35 C157.59,3.35 159.15,3.56 159.3,4.02 C159.611672,5.33153939 159.64912,6.69331383 159.41,8.02 C159.41,8.33 158.41,8.7 157.89,8.74 C156.48,8.85 155.05,8.74 153.63,8.74 C151.14,8.74 149.9,9.84 149.88,12.31 C149.8,19.04 149.88,25.78 149.88,32.51 L149.51,32.62 Z" id="Path" fill="#000000"></path>
            <path d="M111.25,71.48 L100,71.48 C97.84,71.48 97.58,71.16 97.57,68.77 C97.56,66.38 97.82,66.15 100.04,66.12 C104.11,66.12 104.26,65.94 103.11,62.04 C101.6,56.96 99.93,51.92 98.41,46.83 C98.05,45.64 97.41,45.37 96.28,45.38 C90.16,45.42 84.0433333,45.42 77.93,45.38 C76.9342532,45.2109233 75.9789934,45.8463026 75.75,46.83 C74.03,51.83 72.23,56.83 70.48,61.83 C70.23,62.53 70.14,63.27 69.94,63.99 C69.55,65.37 70.19,65.99 71.5,66.05 C73.04,66.11 74.59,66.15 76.13,66.05 C78.13,65.98 78.28,67.17 78.24,68.71 C78.2,70.25 78.24,71.46 76.24,71.44 C69.58,71.44 62.91,71.44 56.24,71.44 C54.55,71.44 54.34,70.44 54.36,69.11 C54.38,67.78 54.1,66.23 56.14,66.11 C56.75,66.11 57.38,66.11 57.99,66.11 C61.66,66.11 62.62,65.54 63.99,62.11 C67.6566667,52.49 71.3266667,42.8566667 75,33.21 C77.58,26.4 80.07,19.56 82.6,12.73 C83.13,11.33 83.53,10.02 82.6,8.52 C81.84,7.3 82.78,6.62 83.91,6 C86.4285435,4.63738374 88.8629307,3.12465751 91.2,1.47 C93,0.16 94,0.29 94.7,2.49 C99.1,15.85 103.45,29.24 107.9,42.59 C109.9,48.59 112.01,54.49 114.18,60.4 C115.95,65.22 117.33,66.08 122.61,66.12 C124.89,66.12 125.28,66.55 125.28,68.85 C125.28,71.15 124.89,71.48 122.54,71.48 L111.25,71.48 Z M87.91,14.63 L87.47,14.55 L78.1,40.15 L96.1,40.15 L87.91,14.63 Z" id="Shape" fill="#000000"></path>
            <path d="M644.63,8.55 C639.75,8.92 634.88,9.11 630.06,9.74 C628.450125,10.0829915 627.012609,10.9823244 626,12.28 C624.389944,14.5324201 622.968456,16.9138302 621.75,19.4 C620.75,21.29 620.14,21.53 617.87,20.73 C616.17,20.14 616.69,18.98 616.99,17.85 C618.323333,12.7233333 619.686667,7.59333333 621.08,2.46 C621.64,0.35 622.85,-0.38 624.36,0.88 C626.92,3.02 629.87,3.26 632.9,3.26 C645.68,3.26 658.46,3.26 671.23,3.03 C673.118808,2.84922709 674.941603,2.24048875 676.56,1.25 C679.3,-0.21 680.16,0.08 680.65,3.09 C681.483333,8.22333333 682.32,13.3433333 683.16,18.45 C683.36,19.71 683.37,20.75 681.76,21.15 C680.15,21.55 679.25,21.49 678.52,19.81 C677.42,17.27 676.08,14.81 674.74,12.4 C673.947814,10.8889616 672.439833,9.88615424 670.74,9.74 C665.74,9.3 660.68,8.94 655.45,8.53 C655.39,9.53 655.31,10.13 655.31,10.72 C655.31,27.9 655.31,45.08 655.31,62.26 C655.31,65.67 655.78,66.12 659.12,66.12 C660.54,66.12 661.96,66.12 663.38,66.12 C665.56,66.19 665.22,67.83 665.28,69.23 C665.34,70.63 664.9,71.51 663.28,71.47 C658.83,71.36 654.38,71.22 649.94,71.22 C645.68,71.22 641.42,71.39 637.16,71.46 C634.83,71.46 634.55,71.17 634.56,68.73 C634.57,66.29 634.81,66.12 637.05,66.11 C638.84,66.11 640.64,66.11 642.43,66.11 C643.77,66.11 644.64,65.48 644.65,63.97 C644.723333,45.87 644.796667,27.7666667 644.87,9.66 C644.819557,9.2842219 644.739304,8.91305143 644.63,8.55 L644.63,8.55 Z" id="Path" fill="#000000"></path>
            <path d="M721.28,8.52 C716.06,8.92 711.13,9.11 706.28,9.79 C704.610607,10.195105 703.137554,11.1759601 702.12,12.56 C700.589049,14.7185372 699.250576,17.0073256 698.12,19.4 C697.12,21.29 696.67,21.47 694.42,20.79 C692.67,20.25 692.99,19.14 693.34,17.87 C694.7,12.74 696,7.61 697.4,2.48 C698,0.35 699.17,-0.39 700.69,0.87 C703.24,3.01 706.19,3.26 709.22,3.26 C722,3.26 734.78,3.26 747.55,3.02 C749.45,3.02 751.43,2.02 753.2,1.07 C755.59,-0.13 756.55,0.23 756.98,2.89 C757.806667,8.13 758.653333,13.3733333 759.52,18.62 C759.73,19.87 759.58,20.79 758.12,21.14 C756.66,21.49 755.7,21.7 755,20 C753.894719,17.3874284 752.590904,14.8633757 751.1,12.45 C750.322738,11.2702975 749.154131,10.4026955 747.8,10 C742.55,8.73 737.17,8.8 731.58,8.91 L731.58,11 C731.58,25.8933333 731.58,40.7866667 731.58,55.68 C731.58,58.09 731.65,60.49 731.71,62.9 C731.71,65.5 732.33,66.07 734.87,66.09 C736.42,66.09 737.96,66.09 739.51,66.09 C741.7,66.01 741.51,67.5 741.59,68.98 C741.67,70.46 741.39,71.55 739.52,71.47 C736.25,71.33 732.97,71.2 729.7,71.21 C724.27,71.21 718.83,71.38 713.4,71.45 C711.3,71.45 710.91,71.01 710.92,68.75 C710.93,66.49 711.3,66.11 713.43,66.1 L718.43,66.1 C720.13,66.1 721.05,65.45 721.05,63.57 C721.05,57.77 721.24,51.96 721.26,46.15 C721.26,34.54 721.26,22.92 721.26,11.3 L721.28,8.52 Z" id="Path" fill="#000000"></path>
            <path d="M231.25,66 C237.25,66 243.04,65.7 248.81,66.09 C254.33,66.46 257.88,63.97 260.49,59.58 C262.06,56.93 263.49,54.2 264.86,51.44 C265.46,50.23 265.98,49.44 267.51,50.03 C269.04,50.62 269.51,51.26 269.1,52.92 C267.62,58.54 266.3,64.19 264.92,69.83 C264.79,70.36 264.64,70.83 264.53,71.28 C256.29,71.28 248.2,71.28 240.11,71.28 C231.53,71.28 222.946667,71.3333333 214.36,71.44 C211.42,71.44 210.21,69.84 211.36,67.12 C211.759824,66.5515204 212.388159,66.1862092 213.08,66.12 C214.79,65.97 216.53,66.05 218.26,65.99 C219.64,65.99 220.33,65.34 220.33,63.8 C220.33,46.68 220.38,29.57 220.38,12.46 C220.38,9 220.1,8.79 216.68,8.79 C215.88,8.79 215.07,8.74 214.27,8.79 C212.49,8.94 211.84,8.12 211.84,6.39 C211.84,3.48 212.04,3.39 215.02,3.39 C222.68,3.44 230.33,3.39 238.02,3.39 C238.92,3.39 240.42,3.63 240.6,4.13 C240.945417,5.35246041 240.976375,6.64237657 240.69,7.88 C240.62,8.27 239.54,8.69 238.89,8.74 C237.17,8.86 235.43,8.74 233.7,8.74 C231.56,8.74 231.28,9.03 231.24,11.23 C231.16,15.86 231.04,20.49 231.04,25.13 C231.04,38.17 231.07,51.21 231.13,64.25 C231.12,64.78 231.18,65.2 231.25,66 Z" id="Path" fill="#000000"></path>
            <path d="M586.24,37.41 C586.24,29.02 586.24,20.62 586.24,12.22 C586.24,9.46 585.6,8.89 582.82,8.85 C581.22,8.85 579.61,8.85 578,8.85 C575.62,8.85 575.34,8.49 575.41,5.74 C575.46,3.74 575.9,3.37 578.04,3.4 C585.013333,3.48666667 591.986667,3.55666667 598.96,3.61 C600.37,3.61 601.79,3.52 603.21,3.39 C605.06,3.23 605.57,4.24 605.58,5.86 C605.58,8.25 605.24,8.8 603.37,8.86 C602.01,8.86 600.65,8.86 599.29,8.86 C598.698447,8.77761118 598.102243,8.9752043 597.676985,9.39458298 C597.251727,9.81396166 597.045854,10.4073576 597.12,11 C597.12,26.6933333 597.12,42.3766667 597.12,58.05 C597.12,59.91 597.12,61.76 597.12,63.61 C597.12,65.2 597.83,66.04 599.46,66.04 C601.09,66.04 602.55,66.13 604.09,66.1 C606.16,66.1 606.09,67.46 606.09,68.88 C606.09,70.3 606.09,71.52 604.09,71.47 C599.77,71.35 595.45,71.22 591.09,71.22 C586.73,71.22 582.57,71.4 578.32,71.45 C576.09,71.45 575.93,71.26 575.94,68.77 C575.95,66.28 576.17,66.13 578.38,66.11 C579.92,66.11 581.47,66.11 583.01,66.11 C585.47,66.02 586.09,65.42 586.1,62.98 C586.1,54.46 586.1,45.98 586.1,37.42 L586.24,37.41 Z" id="Path" fill="#000000"></path>
            <polygon id="Path" fill="#000000" points="332.3 94.38 332.3 96.2 324.63 96.2 324.63 100.77 331.63 100.77 331.85 102.77 324.65 102.77 324.65 107.77 332.65 107.77 332.65 109.69 322.55 109.69 322.55 94.38"></polygon>
            <path d="M429.54,109.48 L432.89,104.2 L431.52,104.13 C430.201913,104.184218 428.921285,103.684349 427.988468,102.751532 C427.055651,101.818715 426.555782,100.538087 426.61,99.22 C426.549358,97.8457429 427.057575,96.5072063 428.015012,95.5194946 C428.972449,94.5317829 430.294521,93.9821555 431.67,94 C434.67,93.86 437.17,95.75 437.21,98.5 C437.211057,99.9718828 436.868645,101.423707 436.21,102.74 C435.06793,104.929675 433.750284,107.023195 432.27,109 C431.81,109.62 430.68,109.75 429.86,110.1 L429.54,109.48 Z M435.13,99.07 C435.206207,97.8943859 434.626237,96.7729712 433.622803,96.155722 C432.619369,95.5384729 431.356914,95.5265442 430.341996,96.1247223 C429.327078,96.7229004 428.726021,97.8331558 428.78,99.01 C428.748741,99.8829159 429.082498,100.729404 429.701087,101.346095 C430.319675,101.962786 431.167184,102.293941 432.04,102.26 C432.878904,102.266107 433.683764,101.928641 434.267455,101.326061 C434.851145,100.723481 435.162814,99.9082844 435.13,99.07 L435.13,99.07 Z" id="Shape" fill="#000000"></path>
            <path d="M385.42,107.94 L392.42,107.94 C392.42,108.59 392.47,109.05 392.5,109.66 L382.63,109.66 C382.120044,108.445614 382.508663,107.039969 383.57,106.26 C385.26,104.73 386.85,103.09 388.45,101.46 C388.985848,100.950718 389.447071,100.368298 389.82,99.73 C390.56,98.4 390.54,97.1 389.17,96.15 C388.582725,95.7254556 387.846301,95.5620389 387.134573,95.6983271 C386.422846,95.8346153 385.79889,96.2585304 385.41,96.87 C384.69,98.22 383.79,98.07 382.68,97.78 C383.05,95.59 384.15,94.32 386.17,94 C388.19,93.68 390.41,93.71 391.86,95.7 C392.993243,97.4179723 392.829085,99.6833558 391.46,101.22 C389.82,103.13 387.95,104.85 386.15,106.63 C385.818692,106.903861 385.463999,107.14813 385.09,107.36 L385.42,107.94 Z" id="Path" fill="#000000"></path>
            <path d="M358.7,109.72 L356.45,109.72 L356.45,96.27 C355.18,96.27 354.04,96.27 352.9,96.27 C351.41,96.27 351.41,96.27 351.54,94.36 L363.38,94.36 L363.38,96.22 L358.7,96.22 L358.7,109.72 Z" id="Path" fill="#000000"></path>
            <path d="M367.08,106.36 C367.71,107.36 368.37,107.93 368.31,108.42 C368.25,108.91 367.5,109.36 367.05,109.82 C366.57,109.33 365.81,108.9 365.7,108.33 C365.62,107.91 366.37,107.32 367.08,106.36 Z" id="Path" fill="#000000"></path>
            <path d="M435.13,99.07 C435.162814,99.9082844 434.851145,100.723481 434.267455,101.326061 C433.683764,101.928641 432.878904,102.266107 432.04,102.26 C430.261643,102.295899 428.790899,100.883357 428.755,99.105 C428.719101,97.3266431 430.131643,95.8558985 431.91,95.82 C432.778587,95.7883506 433.620786,96.1216213 434.232521,96.7390557 C434.844256,97.3564901 435.169703,98.2017439 435.13,99.07 L435.13,99.07 Z" id="Path" fill="#FFFFFF"></path>
        </g>
    </g>
</svg>