<?xml version="1.0" encoding="UTF-8"?>
<svg width="102px" height="16px" viewBox="0 0 102 16" version="1.1" xmlns="http://www.w3.org/2000/svg" xmlns:xlink="http://www.w3.org/1999/xlink">
    <!-- Generator: Sketch 43.2 (39069) - http://www.bohemiancoding.com/sketch -->
    <title>recolution_plain</title>
    <desc>Created with Sketch.</desc>
    <defs></defs>
    <g id="Page-1" stroke="none" stroke-width="1" fill="none" fill-rule="evenodd">
        <g id="iPad-Pro-Portrait" transform="translate(-387.000000, -464.000000)" fill-rule="nonzero" fill="#848384">
            <g id="recolution_plain" transform="translate(387.000000, 464.000000)">
                <path d="M10.2361446,15.8072289 C8.01349398,15.2038554 6.41542169,13.9277108 5.72722892,11.653012 C5.00368989,9.32029371 5.75247435,6.78126824 7.6260241,5.21445783 C9.51110647,3.71363724 12.1098042,3.48228792 14.2303614,4.62650602 C16.233253,5.70987952 17.3571084,7.85542169 17.1219277,10.3151807 L7.10554217,10.3151807 C7.10554217,12.1349398 8.08481928,13.5151807 9.75614458,14.153253 C11.5026506,14.820241 13.5344578,14.4327711 14.5754217,13.0178313 C15.1653012,12.2081928 15.7744578,11.9710843 16.7575904,12.2236145 C16.1670561,13.6972254 14.9872368,14.8567754 13.5036145,15.4216867 L12.539759,15.8072289 L10.2361446,15.8072289 Z M15.5855422,9.01590361 C15.4216867,6.84144578 13.4515663,5.14313253 11.2308434,5.23180723 C8.97156627,5.32240964 7.16915663,6.97831325 7.13253012,9.01590361 L15.5855422,9.01590361 Z" id="Shape"></path>
                <path d="M37.4168675,15.8072289 C37.2812825,15.7322679 37.1401453,15.6678217 36.9946988,15.6144578 C33.9277108,14.7971084 32.1754217,12.1118072 32.6110843,8.88481928 C32.9966265,6.01253012 35.4371084,3.91903614 38.4250602,3.8939759 C41.413012,3.86891566 43.9363855,5.97590361 44.3373494,8.8886747 C44.7845783,12.0983133 43.0284337,14.7913253 39.9556627,15.620241 C39.8098793,15.6727824 39.668678,15.737258 39.533494,15.813012 L37.4168675,15.8072289 Z M42.8414458,9.87566265 C42.8414458,7.29445783 40.9831325,5.38216867 38.459759,5.38409639 C35.9363855,5.3860241 34.0819277,7.31180723 34.0915663,9.89493976 C34.1012048,12.4240964 35.9460241,14.3151807 38.4289157,14.340241 C40.9503614,14.3633735 42.8337349,12.4568675 42.8414458,9.87566265 L42.8414458,9.87566265 Z" id="Shape"></path>
                <path d="M81.946988,15.8072289 C81.8067158,15.7380849 81.6617847,15.6788242 81.513253,15.6298795 C78.4963855,14.8587952 76.6766265,12.2004819 77.0698795,9.11807229 C77.466988,5.99903614 79.8689157,3.8746988 82.9763855,3.89975904 C86.0838554,3.92481928 88.4954217,6.09542169 88.8539759,9.17783133 C89.2125301,12.260241 87.3387952,14.8954217 84.3180723,15.6375904 C84.1666626,15.684183 84.0185403,15.7408557 83.8746988,15.8072289 L81.946988,15.8072289 Z M82.966747,5.38409639 C80.4607229,5.37445783 78.533012,7.31180723 78.533012,9.85445783 C78.533012,12.3971084 80.4607229,14.3479518 82.966747,14.3383133 C85.4727711,14.3286747 87.3195181,12.4298795 87.346506,9.91614458 C87.3619277,7.36385542 85.4650602,5.39759036 82.966747,5.38409639 L82.966747,5.38409639 Z" id="Shape"></path>
                <path d="M23.9228916,15.8072289 C23.5373494,15.6722892 23.1383133,15.5489157 22.7527711,15.4004819 C20.2139759,14.4366265 18.7681928,11.8746988 19.1074699,8.96192771 C19.4120482,6.33638554 21.4207229,4.35855422 24.2043373,3.96144578 C26.8071034,3.59336077 29.3358213,5.00635192 30.386506,7.41590361 C30.459759,7.58939759 30.5040964,7.77445783 30.5792771,8.03277108 C29.7407229,8.16578313 29.1219277,8.26216867 28.5956627,7.31951807 C27.5951807,5.52674699 25.1951807,4.86554217 23.2674699,5.66939759 C21.339759,6.47325301 20.2409639,8.63421687 20.6804819,10.8395181 C21.0789093,12.9134942 22.920164,14.3941665 25.0313253,14.3383133 C26.5021687,14.3151807 27.8014458,13.8004819 28.5474699,12.5185542 C29.046747,11.6645783 29.6250602,11.5681928 30.5850602,11.7879518 C30.1831686,13.1410665 29.2743505,14.2867575 28.0481928,14.9860241 C27.4595023,15.2923895 26.8545939,15.5665288 26.2361446,15.8072289 L23.9228916,15.8072289 Z" id="Path"></path>
                <path d="M56.1156627,15.8072289 C53.5190361,15.1113253 52.0481928,13.4939759 52.0173494,10.7354217 C52,9.41879518 51.9980723,8.10216867 51.9922892,6.78746988 L51.9922892,4.31036145 L53.5344578,4.31036145 L53.5344578,9.99325301 C53.5344578,10.3440964 53.5460241,10.6987952 53.5787952,11.0496386 C53.7715663,13.1990361 54.9686747,14.313253 57.0833735,14.3093976 C59.1980723,14.3055422 60.4337349,13.2163855 60.5648193,11.0322892 C60.6766265,9.17590361 60.6380723,7.30987952 60.6631325,5.44192771 L60.6631325,4.2660241 L62.0260241,4.2660241 C62.0260241,6.85301205 62.2187952,9.42843373 61.9681928,11.9614458 C61.7638554,14.1628916 60.0848193,15.2751807 58.0433735,15.8072289 L56.1156627,15.8072289 Z" id="Path"></path>
                <polygon id="Path" points="68.0674699 0 68.0674699 4.21975904 70.3614458 4.21975904 70.3614458 5.43614458 68.0115663 5.43614458 68.0115663 15.4216867 66.4693976 15.4216867 66.4693976 5.52096386 64.2756627 5.39759036 64.2756627 4.25831325 66.5253012 4.25831325 66.5253012 0"></polygon>
                <polygon id="Path" points="48.5975904 0 48.5975904 15.4313253 47.0554217 15.4313253 47.0554217 0"></polygon>
                <path d="M0.0192771084,4.24096386 L1.41493976,4.24096386 L1.56144578,5.79855422 C2.44626506,4.5339759 3.53349398,3.95951807 4.97156627,3.93445783 L4.97156627,5.32819277 C2.14939759,6.05108434 1.55566265,6.82795181 1.54216867,9.8313253 L1.54216867,15.4216867 L0.0192771084,15.4216867 L0.0192771084,4.24096386 Z" id="Path"></path>
                <path d="M101.603855,15.460241 L100.073253,15.460241 C100.073253,14.2824096 100.09253,13.146988 100.073253,11.9903614 C100.044337,10.6775904 100.104096,9.34361446 99.8939759,8.05783133 C99.5951807,6.22650602 98.3787952,5.37445783 96.4607229,5.38795181 C94.619759,5.40144578 93.3763855,6.28240964 93.1412048,8.07325301 C92.9233735,9.78313253 92.9927711,11.5296386 92.9484337,13.2607229 C92.9310843,13.9604819 92.9484337,14.6640964 92.9484337,15.4274699 L91.4062651,15.4274699 C91.4062651,14.7122892 91.3966265,13.9893976 91.4062651,13.266506 C91.433253,11.5662651 91.3253012,9.8486747 91.5354217,8.16963855 C91.8689157,5.48626506 93.8293976,3.9113253 96.5166265,3.9286747 C99.2443373,3.9286747 101.152771,5.57879518 101.54988,8.27759036 C101.590743,8.62815684 101.607489,8.98111532 101.6,9.3339759 C101.605783,11.346506 101.603855,13.3628916 101.603855,15.460241 Z" id="Path"></path>
                <polygon id="Path" points="73.993253 15.4448193 72.6746988 15.4448193 72.6746988 4.27373494 73.993253 4.27373494"></polygon>
            </g>
        </g>
    </g>
</svg>