<?xml version="1.0" encoding="UTF-8"?>
<svg width="357px" height="126px" viewBox="0 0 357 126" version="1.1" xmlns="http://www.w3.org/2000/svg" xmlns:xlink="http://www.w3.org/1999/xlink">
    <!-- Generator: Sketch 53.2 (72643) - https://sketchapp.com -->
    <title>S.Oliver</title>
    <desc>Created with Sketch.</desc>
    <g id="Page-1" stroke="none" stroke-width="1" fill="none" fill-rule="evenodd">
        <g id="S.Oliver" fill="#000000" fill-rule="nonzero">
            <path d="M13.501,55.771 C9.064,57.974 5.712,61.891 4.402,67.125 C4.017,68.663 3.822,70.224 3.822,71.759 C3.822,75.232 4.535,77.141 6.449,79.987 C8.789,83.466 13.354,85.942 17.109,87.799 C22.364,90.397 27.005,93.742 27.005,100.162 C27.005,101.027 26.913,101.966 26.732,102.949 C25.391,110.236 18.655,114.037 13.184,113.38 C8.998,112.877 4.552,110.459 4.848,102.436 C4.923,100.387 3.721,98.838 2.475,98.671 C1.465,98.532 0.673,99.228 0.407,100.48 C-0.511,104.799 -0.411,113.208 6.545,117.869 C11.92,121.471 22.037,122.776 29.663,118.731 C33.619,116.61 38.715,112.399 38.605,103.757 C38.645,93.679 31.769,89.874 24.894,86.124 C20.562,83.762 16.987,81.801 15.307,78.271 C13.386,74.242 13.915,66.604 19.204,63.316 C21.83,61.684 24.863,62.185 27.2,63.704 C29.881,65.446 30.369,68.098 30.753,69.954 C31.045,71.364 31.444,72.694 32.038,73.179 C32.853,73.846 34.575,73.828 34.816,71.847 C35.407,66.982 34.11,62.41 31.46,59.011 C27.019,53.317 18.535,53.228 13.501,55.771 Z" id="Path"></path>
            <path d="M104.618,125.06 C66.484,125.48 53.021,86.972 54.006,62.401 C55.585,22.97 79.481,-2.412 111.992,0.182 C113.841,0.329 114.846,0.939 114.744,2.135 C114.632,3.453 113.172,3.444 110.784,3.508 C79.46,4.324 68.753,35.825 69.053,63.079 C69.384,92.996 81.263,119.515 104.661,119.257 C125.285,119.029 134.161,93.59 135.603,69.499 C137.334,40.579 127.567,13.921 111.8,14.43 C94.266,14.999 88.466,39.508 89.743,55.052 C91.286,73.851 103.939,82.715 107.022,84.23 C108.526,84.968 109.509,85.505 109.002,86.826 C108.566,87.963 107.714,88.125 105.302,87.43 C100.867,86.158 81.384,78.853 79.654,54.524 C77.796,28.375 92.178,9.16 112.6,8.904 C132.469,8.656 149.79,30.298 148.271,68.585 C145.933,106.041 126.372,124.819 104.618,125.06 Z M204.605,52.511 C208.763,52.771 211.309,50.054 211.322,45.921 C211.334,41.804 208.168,38.701 204.885,38.692 C200.848,38.68 198.301,42.555 198.499,46.12 C198.643,48.657 200.448,52.257 204.605,52.511 Z M355.937,116.319 C350.213,122.186 321.169,136.802 331.062,78.092 C332.052,72.212 324.739,74.01 324.739,74.01 C323.985,79.467 320.268,122.591 295.639,122.321 C279.868,121.847 271.874,107.299 271.093,94.606 C267.931,92.535 264.353,87.488 261.885,83.611 C260.839,90.903 257.031,121.788 244.445,121.752 C240.04,121.738 231.681,117.179 228.806,102.639 C227.724,111.522 222.685,122.605 213.33,121.758 C205.592,121.057 198.934,112.612 198.392,100.612 L198.38,100.583 C197.529,103.666 194.65,118.888 181.3,121.272 C169.651,123.353 159.922,113.334 157.077,100.883 C157.077,100.883 150.363,101.497 148.498,101.182 C146.984,100.925 146.543,98.373 147.81,98.132 C150.503,97.617 153.725,96.984 156.013,96.307 C150.36,67.43 153.894,10.135 175.768,9.236 C198.057,8.317 190.299,88.359 166.53,98.607 C167.439,102.987 170.655,116.012 180.763,115.18 C190.158,114.409 194.024,103.344 196.12,94.204 C198.22,85.066 197.921,73.313 198.466,67.988 C199.004,62.713 209.991,62.467 209.899,68.634 C209.766,77.147 202.516,114.391 216.34,115.591 C224.045,116.259 226.887,103.201 227.516,96.303 C226.362,87.949 226.075,80.912 226.436,70.496 C226.705,62.692 238.812,62.817 238.437,69.735 C237.925,79.213 237.116,107.521 244.437,111.618 C251.758,115.717 255.867,82.584 256.751,74.555 C253.374,65.933 251.778,53.458 255.287,48.504 C256.509,46.78 258.295,45.903 259.891,45.907 C260.703,45.909 263.383,46.532 264.616,50.274 C266.562,56.17 264.219,68.285 263.617,72.316 C264.604,76.379 266.935,85.09 270.767,89.341 C270.678,79.595 275.193,56.053 288.899,51.956 C313.87,44.502 318.825,109.223 282.189,99.51 C283.072,107.383 286.392,116.254 295.267,117.345 C316.62,119.382 317.832,74.656 317.975,71.217 C318.163,66.626 315.178,63.749 316.17,57.21 C317.355,49.34 325.826,50.887 326.396,56.408 C326.733,59.644 326.404,62.685 326.295,64.351 C343.196,57.449 346.074,66.549 343.291,77.155 C329.175,130.936 352.183,115.566 354.262,114.414 C355.552,113.699 356.863,115.368 355.937,116.319 Z M165.952,93.021 C184.313,82.117 188.313,16.522 177.551,17.945 C163.232,19.834 163.347,82.324 165.952,93.021 Z M281.938,95.998 C307.709,102.851 306.309,57.311 293.377,61.446 C283.253,64.687 281.492,91.594 281.938,95.998 Z" id="Shape"></path>
            <path d="M49.748,119.488 C54.281,119.758 57.05,116.973 57.061,112.721 C57.073,108.496 53.628,105.316 50.048,105.304 C45.654,105.292 42.878,109.271 43.093,112.925 C43.249,115.532 45.219,119.226 49.748,119.488 Z" id="Path"></path>
        </g>
    </g>
</svg>