<?xml version="1.0" encoding="UTF-8"?>
<svg width="68px" height="24px" viewBox="0 0 68 24" version="1.1" xmlns="http://www.w3.org/2000/svg" xmlns:xlink="http://www.w3.org/1999/xlink">
    <!-- Generator: Sketch 43.2 (39069) - http://www.bohemiancoding.com/sketch -->
    <title>soliver</title>
    <desc>Created with Sketch.</desc>
    <defs></defs>
    <g id="Page-1" stroke="none" stroke-width="1" fill="none" fill-rule="evenodd">
        <g id="iPad-Pro-Portrait" transform="translate(-812.000000, -458.000000)" fill-rule="nonzero" fill="#848384">
            <g id="soliver" transform="translate(812.000000, 458.000000)">
                <path d="M2.57161905,10.6230476 C1.72647619,11.0426667 1.088,11.7887619 0.83847619,12.7857143 C0.765142857,13.0786667 0.728,13.376 0.728,13.668381 C0.728,14.3299048 0.863809524,14.6935238 1.22838095,15.235619 C1.67409524,15.8982857 2.54361905,16.3699048 3.25885714,16.723619 C4.25980952,17.2184762 5.14380952,17.855619 5.14380952,19.0784762 C5.14380952,19.2432381 5.12628571,19.4220952 5.09180952,19.6093333 C4.83638095,20.9973333 3.55333333,21.7213333 2.5112381,21.5961905 C1.71390476,21.500381 0.867047619,21.0398095 0.923428571,19.511619 C0.937714286,19.1213333 0.708761905,18.8262857 0.471428571,18.7944762 C0.279047619,18.768 0.128190476,18.9005714 0.0775238095,19.1390476 C-0.0973333333,19.9617143 -0.0782857143,21.5634286 1.24666667,22.4512381 C2.27047619,23.1373333 4.19752381,23.3859048 5.65009524,22.6154286 C6.40361905,22.2114286 7.37428571,21.4093333 7.35333333,19.7632381 C7.36095238,17.843619 6.0512381,17.1188571 4.74171429,16.4045714 C3.91657143,15.9546667 3.23561905,15.5811429 2.91561905,14.9087619 C2.54971429,14.1413333 2.65047619,12.6864762 3.65790476,12.0601905 C4.15809524,11.7493333 4.73580952,11.8447619 5.18095238,12.1340952 C5.69161905,12.4659048 5.78457143,12.9710476 5.85771429,13.3245714 C5.91333333,13.5931429 5.98933333,13.8464762 6.10247619,13.9388571 C6.25771429,14.0659048 6.58571429,14.0624762 6.63161905,13.6851429 C6.74419048,12.7584762 6.49714286,11.887619 5.99238095,11.2401905 C5.14647619,10.155619 3.53047619,10.1386667 2.57161905,10.6230476 Z" id="Path"></path>
                <path d="M19.9272381,23.8209524 C12.663619,23.9009524 10.0992381,16.5660952 10.2868571,11.8859048 C10.587619,4.3752381 15.1392381,-0.459428571 21.3318095,0.0346666667 C21.684,0.0626666667 21.8754286,0.178857143 21.856,0.406666667 C21.8346667,0.657714286 21.5565714,0.656 21.1017143,0.668190476 C15.1352381,0.823619048 13.0958095,6.82380952 13.1529524,12.0150476 C13.216,17.7135238 15.4786667,22.7647619 19.9354286,22.715619 C23.8638095,22.6721905 25.5544762,17.8266667 25.8291429,13.2379048 C26.1588571,7.72933333 24.2984762,2.65161905 21.2952381,2.74857143 C17.9554286,2.85695238 16.8506667,7.52533333 17.0939048,10.4860952 C17.3878095,14.0668571 19.7979048,15.7552381 20.3851429,16.0438095 C20.671619,16.184381 20.8588571,16.2866667 20.7622857,16.5382857 C20.6792381,16.7548571 20.5169524,16.7857143 20.0575238,16.6533333 C19.2127619,16.4110476 15.5017143,15.019619 15.1721905,10.3855238 C14.8182857,5.4047619 17.5577143,1.7447619 21.447619,1.696 C25.2321905,1.6487619 28.5314286,5.77104762 28.2420952,13.0638095 C27.7967619,20.1982857 24.0708571,23.7750476 19.9272381,23.8209524 Z M38.972381,10.0020952 C39.764381,10.051619 40.2493333,9.53409524 40.2518095,8.74685714 C40.2540952,7.96266667 39.6510476,7.37161905 39.0257143,7.36990476 C38.2567619,7.36761905 37.771619,8.10571429 37.8093333,8.7847619 C37.8367619,9.268 38.1805714,9.95371429 38.972381,10.0020952 Z M67.7975238,22.156 C66.7072381,23.2735238 61.1750476,26.0575238 63.0594286,14.8746667 C63.248,13.7546667 61.8550476,14.0971429 61.8550476,14.0971429 C61.7114286,15.1365714 61.0034286,23.3506667 56.3121905,23.2992381 C53.3081905,23.2089524 51.7855238,20.4379048 51.6367619,18.0201905 C51.0344762,17.6257143 50.3529524,16.664381 49.8828571,15.9259048 C49.683619,17.3148571 48.9582857,23.1977143 46.5609524,23.1908571 C45.7219048,23.1881905 44.1297143,22.3198095 43.5820952,19.5502857 C43.376,21.2422857 42.4161905,23.3533333 40.6342857,23.192 C39.160381,23.0584762 37.8921905,21.4499048 37.7889524,19.1641905 L37.7866667,19.1586667 C37.6245714,19.7459048 37.0761905,22.6453333 34.5333333,23.0994286 C32.3144762,23.4958095 30.4613333,21.5874286 29.9194286,19.2158095 C29.9194286,19.2158095 28.6405714,19.3327619 28.2853333,19.2727619 C27.9969524,19.2238095 27.9129524,18.7377143 28.1542857,18.6918095 C28.6672381,18.5937143 29.2809524,18.4731429 29.7167619,18.3441905 C28.64,12.8438095 29.3131429,1.93047619 33.479619,1.7592381 C37.7251429,1.58419048 36.2474286,16.8302857 31.72,18.7822857 C31.8931429,19.6165714 32.5057143,22.0975238 34.4310476,21.9390476 C36.2205714,21.7921905 36.9569524,19.6845714 37.3561905,17.943619 C37.7561905,16.2030476 37.6992381,13.964381 37.8030476,12.9500952 C37.9055238,11.9453333 39.9982857,11.8984762 39.9807619,13.0731429 C39.9554286,14.6946667 38.5744762,21.7887619 41.207619,22.0173333 C42.6752381,22.1445714 43.2165714,19.6573333 43.336381,18.3434286 C43.1165714,16.7521905 43.0619048,15.4118095 43.1306667,13.4278095 C43.1819048,11.9413333 45.488,11.9651429 45.4165714,13.2828571 C45.3190476,15.0881905 45.1649524,20.4801905 46.5594286,21.2605714 C47.9539048,22.0413333 48.7365714,15.7302857 48.9049524,14.2009524 C48.2617143,12.5586667 47.9577143,10.1824762 48.6260952,9.23885714 C48.8588571,8.91047619 49.1990476,8.74342857 49.5030476,8.74419048 C49.6577143,8.74457143 50.1681905,8.8632381 50.4030476,9.576 C50.7737143,10.6990476 50.3274286,13.0066667 50.2127619,13.7744762 C50.4007619,14.548381 50.8447619,16.207619 51.5746667,17.0173333 C51.5577143,15.1609524 52.4177143,10.6767619 55.028381,9.89638095 C59.7847619,8.47657143 60.7285714,20.804381 53.7502857,18.9542857 C53.9184762,20.4539048 54.5508571,22.143619 56.2413333,22.3514286 C60.3085714,22.7394286 60.5394286,14.2201905 60.5666667,13.5651429 C60.6024762,12.6906667 60.0339048,12.1426667 60.2228571,10.8971429 C60.4485714,9.39809524 62.0620952,9.6927619 62.1706667,10.744381 C62.2348571,11.3607619 62.1721905,11.94 62.1514286,12.2573333 C65.3706667,10.9426667 65.9188571,12.676 65.3887619,14.6961905 C62.7,24.9401905 67.0824762,22.0125714 67.4784762,21.7931429 C67.7241905,21.6569524 67.9739048,21.9748571 67.7975238,22.156 Z M31.6099048,17.7182857 C35.1072381,15.6413333 35.8691429,3.14704762 33.8192381,3.41809524 C31.0918095,3.77790476 31.1137143,15.6807619 31.6099048,17.7182857 Z M53.7024762,18.2853333 C58.6112381,19.5906667 58.3445714,10.916381 55.8813333,11.704 C53.9529524,12.3213333 53.6175238,17.4464762 53.7024762,18.2853333 Z" id="Shape"></path>
                <path d="M9.47580952,22.759619 C10.3392381,22.8110476 10.8666667,22.2805714 10.8687619,21.4706667 C10.8710476,20.6659048 10.2148571,20.0601905 9.53295238,20.0579048 C8.696,20.055619 8.1672381,20.8135238 8.20819048,21.5095238 C8.23790476,22.0060952 8.61314286,22.7097143 9.47580952,22.759619 Z" id="Path"></path>
            </g>
        </g>
    </g>
</svg>