<?xml version="1.0" encoding="UTF-8"?>
<svg width="40px" height="40px" viewBox="0 0 40 40" version="1.1" xmlns="http://www.w3.org/2000/svg" xmlns:xlink="http://www.w3.org/1999/xlink">
    <!-- Generator: Sketch 43.2 (39069) - http://www.bohemiancoding.com/sketch -->
    <title>axa</title>
    <desc>Created with Sketch.</desc>
    <defs></defs>
    <g id="Page-1" stroke="none" stroke-width="1" fill="none" fill-rule="evenodd">
        <g id="iPad-Pro-Portrait" transform="translate(-917.000000, -452.000000)" fill-rule="nonzero">
            <g id="axa" transform="translate(917.000000, 452.000000)">
                <rect id="base-2" fill="#848384" x="0.00035076619" y="0.00035076619" width="39.7719038" height="39.7719038"></rect>
                <polygon id="switch" fill="#C3C3C3" points="22.3620471 19.6415044 24.6460963 19.6415044 39.7722574 0 37.5381574 0"></polygon>
                <path d="M30.389963,28.4065906 C31.0832173,30.3460471 32.5116777,35.3931519 33.0795681,35.7952703 L29.3293863,35.7952703 C29.3181181,35.3490592 29.2591104,34.905337 29.1533718,34.471689 C28.9916686,33.8948189 27.6351856,29.5307963 27.6351856,29.5307963 L21.6783336,29.5307963 L20.7417877,30.8585165 C20.7417877,30.8585165 21.866695,34.3798584 21.9365676,34.5525056 C22.0578626,34.8635651 22.5949558,35.7952703 22.5949558,35.7952703 L19.0010052,35.7952703 C19.0010052,35.7952703 18.9078418,35.2574755 18.8729055,35.0334761 C18.844774,34.8526212 18.5323816,33.8619872 18.5323816,33.8619872 C18.5323816,33.8619872 17.7178323,34.754617 17.4958675,35.168451 C17.271798,35.5815134 17.1724611,35.7952703 17.1724611,35.7952703 L14.3608595,35.7952703 C14.3608595,35.7952703 14.2669945,35.2574755 14.2320581,35.0334761 C14.2046984,34.8526212 13.8607342,33.7825036 13.8607342,33.7825036 C13.8607342,33.7825036 13.0736148,34.7382012 12.8495454,35.1512635 C12.626879,35.5650974 12.5309795,35.7952703 12.5309795,35.7952703 L9.75024537,35.7952703 C9.75024537,35.7952703 10.5360318,35.0471561 10.8107519,34.7258543 C11.2738335,34.1811845 12.9996032,31.9258981 12.9996032,31.9258981 L12.3076846,29.5307949 L6.39601128,29.5307949 C6.39601128,29.5307949 3.02535851,33.9599197 2.89248967,34.096929 C2.75821637,34.2319038 1.77579039,35.6418437 1.75383101,35.7952689 L0,35.7952689 L0,34.6799726 C0.0217528243,34.656288 0.0448478781,34.6338722 0.0691710955,34.6128359 C0.123329397,34.573059 2.62457305,31.4682169 4.9223723,28.4065892 C6.9872628,25.7367673 8.92468484,23.1402555 9.09459599,22.8929654 C9.50632536,22.294909 10.0996113,21.0035282 10.0996113,21.0035282 L13.1557671,21.0035282 C13.1557671,21.0035282 13.2503337,22.1914329 13.3394283,22.4798329 C13.4188418,22.7346996 15.2809193,28.8443454 15.324765,28.9101492 L16.3544743,27.5933728 L14.5944697,22.1756485 C14.5944697,22.1756485 14.1820388,21.1562518 14.0477656,21.0035282 L17.6177939,21.0035282 C17.6051919,21.3312143 17.6444955,21.6588316 17.7342482,21.9742386 C17.8794655,22.4209744 18.6447671,25.1825567 18.6447671,25.1825567 C18.6447671,25.1825567 21.0795757,22.1304698 21.2220569,21.9112409 C21.3950229,21.6378148 21.4982884,21.3261395 21.5228038,21.0035282 L24.4974416,21.0035282 C24.4974416,21.0035282 23.952842,21.4015074 22.9984772,22.6086342 C22.6778769,23.0148916 19.5366954,27.0069618 19.5366954,27.0069618 C19.5366954,27.0069618 19.8107842,27.941403 19.944356,28.406592 C19.9806953,28.5401638 20.0060205,28.6305912 20.0060205,28.6402023 C20.0060205,28.6443414 20.0751916,28.5593857 20.1943849,28.406592 C21.0048624,27.3796188 24.6913479,22.5456394 24.9147159,22.1318055 C25.0948693,21.7975253 25.3599784,21.4172947 25.5155082,21.0035309 L28.4175345,21.0035309 C28.4175345,21.0035309 28.4846711,21.8701339 28.5730643,22.1099177 L30.389963,28.4065906 Z M25.9738165,23.8308455 C25.5477057,24.7475378 23.0395871,27.8009577 23.0395871,27.8009577 L27.0117337,27.8009577 C27.0117337,27.8009577 26.2417318,25.4298483 26.1074585,24.8954911 C26.0388414,24.5538097 26.0125934,24.2049745 26.0293078,23.8568723 C26.029305,23.8082561 26.0203982,23.729474 25.9738165,23.8308455 L25.9738165,23.8308455 Z M10.7120491,23.8308455 C10.2859383,24.7475378 7.77781966,27.8009577 7.77781966,27.8009577 L11.7499663,27.8009577 C11.7499663,27.8009577 10.9806659,25.4298483 10.8463926,24.8954911 C10.7777756,24.5538097 10.7515275,24.2049745 10.7682419,23.8568723 C10.7682419,23.8082561 10.758701,23.729474 10.7120477,23.8308455 L10.7120491,23.8308455 Z M16.6922621,33.0891791 L17.7856705,31.5874789 C17.6849305,31.4792295 17.0690579,29.6116829 17.0690579,29.6116829 L16.0119161,30.9831789 L16.6922621,33.0891791 Z" id="Shape" fill="#FFFFFF"></path>
            </g>
        </g>
    </g>
</svg>