<?xml version="1.0" encoding="UTF-8"?>
<svg width="108px" height="20px" viewBox="0 0 108 20" version="1.1" xmlns="http://www.w3.org/2000/svg" xmlns:xlink="http://www.w3.org/1999/xlink">
    <!-- Generator: Sketch 43.2 (39069) - http://www.bohemiancoding.com/sketch -->
    <title>douglas</title>
    <desc>Created with Sketch.</desc>
    <defs></defs>
    <g id="Page-1" stroke="none" stroke-width="1" fill="none" fill-rule="evenodd">
        <g id="iPad-Pro-Portrait" transform="translate(-239.000000, -462.000000)" fill-rule="nonzero" fill="#848384">
            <g id="douglas" transform="translate(239.000000, 462.000000)">
                <path d="M21.2625197,0.0329133858 C19.4118717,0.0233379946 17.5976617,0.547229219 16.0370079,1.54188976 C16.5125802,1.91017074 16.9440455,2.33212422 17.3228346,2.79937008 C18.5301757,2.13986863 19.8872328,1.8029774 21.2628346,1.82125984 C25.9014173,1.82125984 29.1988976,5.2303937 29.1988976,9.9807874 C29.1988976,14.7034646 25.9014173,18.0845669 21.2628346,18.0845669 C16.6801575,18.0845669 13.3826772,14.7033071 13.3826772,9.9807874 C13.3684659,8.62767265 13.6647755,7.28932304 14.2488189,6.06866142 C13.9110726,5.53489849 13.4748668,5.07026083 12.9634646,4.69952756 C11.9879538,6.28783298 11.4750167,8.11684496 11.4823622,9.9807874 C11.4823622,15.7371654 15.5900787,19.9288189 21.2618898,19.9288189 C26.8785827,19.9288189 31.0981102,15.6533858 31.0981102,9.9807874 C31.0981102,4.30818898 26.8792126,0.0329133858 21.2625197,0.0329133858 L21.2625197,0.0329133858 Z M45.5735433,12.1324409 C45.5786162,12.934478 45.4752661,13.7335214 45.2662992,14.507874 C44.5955906,16.7992126 42.6954331,18.0847244 40.1524409,18.0847244 C37.6374803,18.0847244 35.7373228,16.7992126 35.0667717,14.507874 C34.8577535,13.7335283 34.7543504,12.934485 34.7593701,12.1324409 L34.7593701,0.424094488 L32.8592126,0.424094488 L32.8592126,12.3280315 C32.8611417,13.3300679 33.0021729,14.3269852 33.2782677,15.2902362 C34.2004724,18.196378 36.603622,19.9289764 40.1806299,19.9289764 C43.7574803,19.9289764 46.1325984,18.1406299 47.0825197,15.2343307 C47.3346457,14.451811 47.4737008,13.2499213 47.4737008,12.2722835 L47.4737008,0.424094488 L45.5735433,0.424094488 L45.5735433,12.1324409 Z M12.460315,16.9946457 C11.9414355,17.2247268 11.3975014,17.3935302 10.8395276,17.4976378 C9.83569496,17.6867257 8.81496167,17.7712195 7.79370079,17.7497638 L2.00929134,17.7497638 L2.00929134,2.18472441 L7.79370079,2.18472441 C8.81495865,2.16313748 9.83570009,2.24757915 10.8395276,2.43669291 C14.5001575,3.21905512 16.512126,5.87370079 16.512126,9.98141732 C16.5374274,11.3267184 16.2704422,12.6614833 15.7296063,13.8935433 C16.0718244,14.4395262 16.4959372,14.9296592 16.9870866,15.3467717 C17.9092913,13.8377953 18.4122835,11.9935433 18.4122835,9.9815748 C18.4122835,5.00771654 15.7855118,1.71023622 11.3144882,0.732283465 C10.2485505,0.511308128 9.16154491,0.408221364 8.07307087,0.42488189 L0.109133858,0.42488189 L0.109133858,19.5379528 L8.07307087,19.5379528 C9.16050822,19.5633981 10.2474615,19.4696635 11.3144882,19.2584252 C12.1511235,19.0800745 12.9595928,18.7886865 13.7176378,18.3922835 C13.227801,17.9952526 12.8035024,17.5236031 12.460315,16.9946457 L12.460315,16.9946457 Z M103.193543,9.28220472 L101.181575,8.30425197 C99.4703937,7.47244094 98.4988976,6.44488189 98.4988976,4.83968504 C98.4988976,3.05133858 99.7286614,1.76582677 101.656693,1.76582677 C103.640945,1.76582677 104.758898,3.16299213 105.065669,5.37055118 L106.854173,5.37055118 C106.51874,1.68204724 104.367087,0.0333858268 101.657323,0.0333858268 C98.6674016,0.0333858268 96.5995276,2.18503937 96.5995276,4.92346457 C96.5995276,7.42393701 98.1124409,9.01669291 100.48378,10.120315 L102.522677,11.0708661 C103.975906,11.7414173 105.289134,12.8311811 105.289134,14.7874016 C105.289134,16.743622 103.891969,18.0848819 101.824567,18.0848819 C99.5891339,18.0848819 97.9683465,16.7993701 97.6330709,13.7541732 L95.7322835,13.7541732 C96.0393701,17.9737008 98.4426772,19.9297638 101.795276,19.9297638 C105.064567,19.9297638 107.244094,17.7500787 107.244094,14.704252 C107.244094,11.6584252 105.26126,10.288189 103.193543,9.28220472 Z M86.5669291,0.424094488 L79.1618898,19.5376378 L81.2856693,19.5376378 L83.5491339,13.4746457 L91.4291339,13.4746457 L93.7206299,19.5376378 L95.9001575,19.5376378 L88.4670866,0.424094488 L86.5669291,0.424094488 Z M90.7585827,11.6851969 L84.219685,11.6851969 L86.4272441,5.81685039 C86.8184252,4.78299213 87.1538583,3.74913386 87.4891339,2.71448819 C87.8275024,3.75718315 88.1908617,4.79160206 88.5788976,5.81685039 L90.7585827,11.6851969 L90.7585827,11.6851969 Z M72.0083465,0.424094488 L70.1083465,0.424094488 L70.1083465,19.5376378 L77.7647244,19.5376378 L78.5192126,17.7491339 L72.0083465,17.7491339 L72.0083465,0.424094488 Z M57.1422047,10.7634646 L57.1422047,12.5514961 L66.1680315,12.5514961 C65.4694488,15.8766929 62.7034646,18.084252 59.0423622,18.084252 C54.4037795,18.084252 51.1902362,14.6913386 51.1902362,9.95275591 C51.1902362,5.23023622 54.4598425,1.82110236 59.0423622,1.82110236 C62.116378,1.82110236 64.6311811,3.41385827 65.7489764,6.15181102 L67.7888189,6.15181102 C66.6151181,2.37937008 63.1781102,0.0321259843 59.0423622,0.0321259843 C53.4537008,0.0321259843 49.2900787,4.30740157 49.2900787,9.95212598 C49.2900787,15.7809449 53.3140157,19.9280315 59.0423622,19.9280315 C64.4634646,19.9280315 68.3477165,16.0159055 68.291811,10.7628346 L57.1422047,10.7634646 L57.1422047,10.7634646 Z" id="Shape"></path>
            </g>
        </g>
    </g>
</svg>