<?xml version="1.0" encoding="UTF-8"?>
<svg width="528px" height="121px" viewBox="0 0 528 121" version="1.1" xmlns="http://www.w3.org/2000/svg" xmlns:xlink="http://www.w3.org/1999/xlink">
    <!-- Generator: Sketch 43.2 (39069) - http://www.bohemiancoding.com/sketch -->
    <title>recolution</title>
    <desc>Created with Sketch.</desc>
    <defs></defs>
    <g id="Page-1" stroke="none" stroke-width="1" fill="none" fill-rule="evenodd">
        <g id="recolution" fill-rule="nonzero" fill="#848384">
            <path d="M53.1,82 C41.57,78.87 33.28,72.25 29.71,60.45 C25.9566413,48.3490236 29.8409607,35.177829 39.56,27.05 C49.3388648,19.2644932 62.8196095,18.0643686 73.82,24 C84.21,29.62 90.04,40.75 88.82,53.51 L36.86,53.51 C36.86,62.95 41.94,70.11 50.61,73.42 C59.67,76.88 70.21,74.87 75.61,67.53 C78.67,63.33 81.83,62.1 86.93,63.41 C83.8666036,71.054357 77.7462908,77.0695223 70.05,80 L65.05,82 L53.1,82 Z M80.85,46.77 C80,35.49 69.78,26.68 58.26,27.14 C46.54,27.61 37.19,36.2 37,46.77 L80.85,46.77 Z" id="Shape"></path>
            <path d="M194.1,82 C193.396653,81.6111399 192.664504,81.2768252 191.91,81 C176,76.76 166.91,62.83 169.17,46.09 C171.17,31.19 183.83,20.33 199.33,20.2 C214.83,20.07 227.92,31 230,46.11 C232.32,62.76 223.21,76.73 207.27,81.03 C206.513749,81.3025589 205.781267,81.6370259 205.08,82.03 L194.1,82 Z M222.24,51.23 C222.24,37.84 212.6,27.92 199.51,27.93 C186.42,27.94 176.8,37.93 176.85,51.33 C176.9,64.45 186.47,74.26 199.35,74.39 C212.43,74.51 222.2,64.62 222.24,51.23 L222.24,51.23 Z" id="Shape"></path>
            <path d="M425.1,82 C424.372338,81.6413153 423.620508,81.3339004 422.85,81.08 C407.2,77.08 397.76,63.29 399.8,47.3 C401.86,31.12 414.32,20.1 430.44,20.23 C446.56,20.36 459.07,31.62 460.93,47.61 C462.79,63.6 453.07,77.27 437.4,81.12 C436.614562,81.3616991 435.846178,81.6556892 435.1,82 L425.1,82 Z M430.39,27.93 C417.39,27.88 407.39,37.93 407.39,51.12 C407.39,64.31 417.39,74.43 430.39,74.38 C443.39,74.33 452.97,64.48 453.11,51.44 C453.19,38.2 443.35,28 430.39,27.93 L430.39,27.93 Z" id="Shape"></path>
            <path d="M124.1,82 C122.1,81.3 120.03,80.66 118.03,79.89 C104.86,74.89 97.36,61.6 99.12,46.49 C100.7,32.87 111.12,22.61 125.56,20.55 C139.061849,18.640559 152.179573,25.9704506 157.63,38.47 C158.01,39.37 158.24,40.33 158.63,41.67 C154.28,42.36 151.07,42.86 148.34,37.97 C143.15,28.67 130.7,25.24 120.7,29.41 C110.7,33.58 105,44.79 107.28,56.23 C109.346842,66.9887513 118.898351,74.6697388 129.85,74.38 C137.48,74.26 144.22,71.59 148.09,64.94 C150.68,60.51 153.68,60.01 158.66,61.15 C156.575187,68.1692826 151.860693,74.1125545 145.5,77.74 C142.446168,79.3292704 139.308206,80.7513683 136.1,82 L124.1,82 Z" id="Path"></path>
            <path d="M291.1,82 C277.63,78.39 270,70 269.84,55.69 C269.75,48.86 269.74,42.03 269.71,35.21 L269.71,22.36 L277.71,22.36 L277.71,51.84 C277.71,53.66 277.77,55.5 277.94,57.32 C278.94,68.47 285.15,74.25 296.12,74.23 C307.09,74.21 313.5,68.56 314.18,57.23 C314.76,47.6 314.56,37.92 314.69,28.23 L314.69,22.13 L321.76,22.13 C321.76,35.55 322.76,48.91 321.46,62.05 C320.4,73.47 311.69,79.24 301.1,82 L291.1,82 Z" id="Path"></path>
            <polygon id="Path" points="353.1 0 353.1 21.89 365 21.89 365 28.2 352.81 28.2 352.81 80 344.81 80 344.81 28.64 333.43 28 333.43 22.09 345.1 22.09 345.1 0"></polygon>
            <polygon id="Path" points="252.1 0 252.1 80.05 244.1 80.05 244.1 0"></polygon>
            <path d="M0.1,22 L7.34,22 L8.1,30.08 C12.69,23.52 18.33,20.54 25.79,20.41 L25.79,27.64 C11.15,31.39 8.07,35.42 8,51 L8,80 L0.1,80 L0.1,22 Z" id="Path"></path>
            <path d="M527.07,80.2 L519.13,80.2 C519.13,74.09 519.23,68.2 519.13,62.2 C518.98,55.39 519.29,48.47 518.2,41.8 C516.65,32.3 510.34,27.88 500.39,27.95 C490.84,28.02 484.39,32.59 483.17,41.88 C482.04,50.75 482.4,59.81 482.17,68.79 C482.08,72.42 482.17,76.07 482.17,80.03 L474.17,80.03 C474.17,76.32 474.12,72.57 474.17,68.82 C474.31,60 473.75,51.09 474.84,42.38 C476.57,28.46 486.74,20.29 500.68,20.38 C514.83,20.38 524.73,28.94 526.79,42.94 C527.00198,44.7585636 527.088851,46.5895357 527.05,48.42 C527.08,58.86 527.07,69.32 527.07,80.2 Z" id="Path"></path>
            <polygon id="Path" points="383.84 80.12 377 80.12 377 22.17 383.84 22.17"></polygon>
            <path d="M184.35,111.89 C184.498855,114.197521 183.864637,116.487754 182.55,118.39 C181.313126,119.928433 179.411082,120.777095 177.44,120.67 C175.521581,120.744461 173.676281,119.928838 172.44,118.46 C171.093802,116.655112 170.415245,114.439199 170.52,112.19 L170.52,108.31 C170.386997,106.007471 171.02762,103.726572 172.34,101.83 C173.560139,100.269355 175.461181,99.3971119 177.44,99.49 C179.391709,99.3944179 181.274269,100.224523 182.52,101.73 C183.844871,103.595895 184.500326,105.85475 184.38,108.14 L184.35,111.89 Z M181.76,108.28 C181.876082,106.590962 181.504698,104.904114 180.69,103.42 C179.914166,102.407021 178.710948,101.812985 177.435,101.812985 C176.159052,101.812985 174.955834,102.407021 174.18,103.42 C173.347921,104.862488 172.958429,106.517829 173.06,108.18 L173.06,111.87 C172.956844,113.54891 173.338685,115.222069 174.16,116.69 C174.924042,117.706873 176.114013,118.314975 177.38572,118.338417 C178.657428,118.361858 179.869002,117.798024 180.67,116.81 C181.471675,115.385663 181.849842,113.761977 181.76,112.13 L181.76,108.28 Z" id="Shape"></path>
            <path d="M194.3,112.05 L190.67,112.05 L190.67,120.39 L188.07,120.39 L188.07,99.77 L193.84,99.77 C195.521307,99.6497461 197.178943,100.220348 198.43,101.35 C199.560388,102.624047 200.126754,104.301499 200,106 C200.027905,107.16889 199.737553,108.323381 199.16,109.34 C198.60405,110.283526 197.768973,111.031252 196.77,111.48 L200.77,120.25 L200.77,120.42 L198,120.42 L194.3,112.05 Z M190.67,109.82 L193.82,109.82 C194.787329,109.876939 195.731926,109.512231 196.41,108.82 C197.097148,108.053636 197.456205,107.048275 197.41,106.02 C197.41,103.37 196.22,102.02 193.82,102.02 L190.7,102.02 L190.67,109.82 Z" id="Shape"></path>
            <path d="M216.07,117.83 L215.62,118.39 C214.156707,119.976589 212.053481,120.814937 209.9,120.67 C207.905299,120.768229 205.973937,119.955217 204.65,118.46 C203.258356,116.674639 202.549195,114.451421 202.65,112.19 L202.65,108.19 C202.65,105.303333 203.23,103.14 204.39,101.7 C207.036927,99.035291 211.271128,98.8062985 214.19,101.17 C215.369973,102.44239 216.023885,104.114691 216.02,105.85 L213.43,105.85 C213.390647,104.763699 213.016974,103.716016 212.36,102.85 C211.649623,102.086499 210.629703,101.688841 209.59,101.77 C208.327641,101.668567 207.100048,102.214582 206.33,103.22 C205.531078,104.63024 205.159329,106.242311 205.26,107.86 L205.26,112 C205.151485,113.678175 205.56734,115.348582 206.45,116.78 C207.235433,117.871277 208.516582,118.494944 209.86,118.44 C211.012175,118.527628 212.154034,118.169679 213.05,117.44 L213.43,117.09 L213.43,112.36 L209.66,112.36 L209.66,110.13 L216.02,110.13 L216.07,117.83 Z" id="Path"></path>
            <path d="M229.63,115 L222.63,115 L221.03,120.4 L218.4,120.4 L225,99.77 L227.22,99.77 L233.88,120.39 L231.22,120.39 L229.63,115 Z M223.34,112.78 L229,112.78 L226.18,103.41 L223.34,112.78 Z" id="Shape"></path>
            <polygon id="Path" points="249.9 120.39 247.29 120.39 239 104.5 239 120.39 236.39 120.39 236.39 99.77 239 99.77 247.28 115.77 247.28 99.77 249.86 99.77"></polygon>
            <polygon id="Path" points="256.8 120.39 254.21 120.39 254.21 99.77 256.8 99.77"></polygon>
            <path d="M274,113.83 C274.012964,115.694011 273.348427,117.499277 272.13,118.91 C270.854094,120.141209 269.119675,120.779823 267.35,120.67 C265.42289,120.734552 263.585833,119.853362 262.43,118.31 C261.120091,116.445768 260.475511,114.195022 260.6,111.92 L260.6,108.18 C260.471835,105.906325 261.136262,103.658584 262.48,101.82 C263.714772,100.27348 265.61271,99.4080792 267.59,99.49 C269.317833,99.387737 271.005654,100.036619 272.22,101.27 C273.399435,102.708972 274.03017,104.519679 274,106.38 L271.38,106.38 C271.393703,105.102787 271.020699,103.851305 270.31,102.79 C269.619473,102.028251 268.614985,101.62941 267.59,101.71 C266.296041,101.656808 265.067993,102.282203 264.35,103.36 C263.504629,104.826735 263.111504,106.510564 263.22,108.2 L263.22,112 C263.122733,113.666051 263.486006,115.326725 264.27,116.8 C264.913488,117.87858 266.095014,118.519212 267.35,118.47 C268.422062,118.573895 269.486701,118.209292 270.27,117.47 C270.998728,116.407654 271.385969,115.14825 271.38,113.86 L274,113.83 Z" id="Path"></path>
            <path d="M285.26,114.85 C285.251916,113.904112 285.493364,112.972812 285.96,112.15 C286.685434,111.046445 287.59142,110.072848 288.64,109.27 C288.01559,108.436161 287.482534,107.537676 287.05,106.59 C286.769849,105.928629 286.623694,105.218249 286.62,104.5 C286.535855,103.160426 286.96896,101.839635 287.83,100.81 C288.668933,99.9170072 289.855988,99.4348804 291.08,99.49 C292.232592,99.4508729 293.347907,99.9013584 294.15,100.73 C294.952472,101.566832 295.384885,102.691107 295.35,103.85 C295.357328,104.626165 295.193438,105.394399 294.87,106.1 C294.45693,106.911509 293.877714,107.627012 293.17,108.2 L291.72,109.44 L295.34,114.67 C295.799101,113.456405 296.026368,112.167428 296.01,110.87 L298.24,110.87 C298.321284,112.929468 297.822326,114.970345 296.8,116.76 L299.32,120.39 L296.32,120.39 L295.27,118.87 C294.717096,119.438707 294.05342,119.887965 293.32,120.19 C292.566604,120.50708 291.757401,120.67028 290.94,120.67 C289.394607,120.741774 287.890874,120.156989 286.8,119.06 C285.747056,117.917407 285.192844,116.40232 285.26,114.85 Z M290.94,118.53 C292.117618,118.473423 293.212484,117.907742 293.94,116.98 L289.85,110.98 L289.42,111.34 C288.383985,112.206347 287.762797,113.47052 287.71,114.82 C287.66458,115.779988 287.966314,116.724238 288.56,117.48 C289.142068,118.187443 290.025086,118.57701 290.94,118.53 L290.94,118.53 Z M289.11,104.42 C289.120143,104.964849 289.249867,105.500817 289.49,105.99 C289.785545,106.581274 290.119597,107.152503 290.49,107.7 L291.58,106.77 C292.064406,106.412609 292.466744,105.955717 292.76,105.43 C292.98163,104.933598 293.087629,104.393345 293.07,103.85 C293.087453,103.273081 292.883511,102.711347 292.5,102.28 C292.146041,101.859535 291.619378,101.623826 291.07,101.64 C290.485206,101.623972 289.937737,101.92642 289.64,102.43 C289.269468,103.025911 289.084948,103.718733 289.11,104.42 L289.11,104.42 Z" id="Shape"></path>
            <polygon id="Path" points="323.17 111.28 316.17 111.28 316.17 120.39 313.58 120.39 313.58 99.77 324.31 99.77 324.31 102 316.17 102 316.17 109.07 323.17 109.07"></polygon>
            <path d="M334.32,115 L327.32,115 L325.73,120.4 L323.06,120.4 L329.7,99.78 L332,99.78 L338.65,120.4 L336,120.4 L334.32,115 Z M328,112.77 L333.63,112.77 L330.81,103.4 L328,112.77 Z" id="Shape"></path>
            <polygon id="Path" points="343.69 120.39 341.09 120.39 341.09 99.77 343.69 99.77"></polygon>
            <path d="M354,112.05 L350.4,112.05 L350.4,120.39 L347.8,120.39 L347.8,99.77 L353.57,99.77 C355.251307,99.6497461 356.908943,100.220348 358.16,101.35 C359.279069,102.618166 359.841232,104.283031 359.72,105.97 C359.747905,107.13889 359.457553,108.293381 358.88,109.31 C358.3215,110.251433 357.487173,110.998487 356.49,111.45 L360.49,120.22 L360.49,120.39 L357.7,120.39 L354,112.05 Z M350.37,109.82 L353.52,109.82 C354.487329,109.876939 355.431926,109.512231 356.11,108.82 C356.797148,108.053636 357.156205,107.048275 357.11,106.02 C357.11,103.353333 355.913333,102.02 353.52,102.02 L350.4,102.02 L350.37,109.82 Z" id="Shape"></path>
        </g>
    </g>
</svg>