<?xml version="1.0" encoding="UTF-8"?>
<svg width="82px" height="34px" viewBox="0 0 82 34" version="1.1" xmlns="http://www.w3.org/2000/svg" xmlns:xlink="http://www.w3.org/1999/xlink">
    <!-- Generator: Sketch 43.2 (39069) - http://www.bohemiancoding.com/sketch -->
    <title>weber</title>
    <desc>Created with Sketch.</desc>
    <defs></defs>
    <g id="Page-1" stroke="none" stroke-width="1" fill="none" fill-rule="evenodd">
        <g id="iPad-Pro-Portrait" transform="translate(-696.000000, -455.000000)" fill-rule="nonzero" fill="#848384">
            <g id="weber" transform="translate(696.000000, 455.000000)">
                <path d="M3.76147368,0.357894737 L77.2014737,0.357894737 C78.2170834,0.332890612 79.2000685,0.717431337 79.9291208,1.42494192 C80.6581732,2.1324525 81.0720147,3.10346554 81.0774737,4.11936842 L81.0774737,29.9808421 C81.0149344,32.0608605 79.3321331,33.7263459 77.2515789,33.7673684 L3.96905263,33.7673684 C2.93482163,33.7991614 1.93130757,33.4134169 1.18465876,32.697065 C0.438009964,31.980713 0.0110510696,30.994029 0,29.9593684 L0,4.25178947 C0,1.99347368 1.58189474,0.357894737 3.76147368,0.357894737 Z M73.3147368,24.2938947 C73.238025,24.2935874 73.1614176,24.2995724 73.0856842,24.3117895 L71.4751579,19.7378947 C71.8616842,19.5911579 72.0871579,19.4157895 72.0871579,19.2261053 C72.0871579,18.9827368 71.7077895,18.7787368 71.0850526,18.6284211 L70.5983158,17.2469474 C72.5953684,16.3593684 73.7477895,14.1869474 73.7477895,13.2456842 C73.7844021,13.05561 73.8059431,12.8629405 73.8122105,12.6694737 C73.7835789,12.5191579 73.9696842,12.5513684 73.9696842,12.5513684 C74.2237895,12.4261053 74.0126316,11.6888421 73.9696842,11.6888421 C73.9267368,11.6888421 73.7621053,11.7246316 73.7370526,11.6208421 C73.236,9.47347368 71.1924211,8.94021053 69.6463158,8.80778947 C69.6912588,8.64469885 69.7117626,8.47584397 69.7071579,8.30673684 C69.7120475,8.25077327 69.7120475,8.19448989 69.7071579,8.13852632 L69.7501053,8.13852632 C69.9329404,8.13852632 70.0811579,7.99030901 70.0811579,7.80747368 C70.0811579,7.62463836 69.9329404,7.47642105 69.7501053,7.47642105 C69.3295407,7.41509468 68.9043703,7.39114143 68.4795789,7.40484211 C68.0667449,7.39546995 67.6538277,7.4194072 67.2448421,7.47642105 C67.0629951,7.46752637 66.9083684,7.60773192 66.8994737,7.78957895 C66.8905789,7.97142598 67.0307845,8.12605268 67.2126316,8.13494737 C67.2089728,8.19215208 67.2089728,8.24953213 67.2126316,8.30673684 C67.2074171,8.46656308 67.2218406,8.62642513 67.2555789,8.78273684 C65.6808421,8.82926316 63.3938947,9.14063158 62.9250526,11.6208421 L62.7282105,11.6208421 C62.6101053,11.6208421 62.4633684,12.2507368 62.628,12.5191579 C62.6781053,12.6050526 62.8033684,12.5477895 62.9178947,12.5549474 C62.9429474,12.8054737 62.9608421,12.8376842 62.9930526,13.1848421 C63.0932632,14.2334737 64.1132632,16.1911579 66.0423158,17.1216842 L65.4947368,18.6105263 C64.7789474,18.7608421 64.3387368,18.9684211 64.3387368,19.244 C64.3387368,19.448 64.6035789,19.6376842 65.0545263,19.7915789 L62.2736842,27.1534737 L62.8749474,27.1534737 L63.4547368,25.7684211 L71.8545263,25.7684211 C71.8565055,26.5768461 72.5134667,27.2306002 73.3218919,27.2286228 C74.1303167,27.2266454 74.7840723,26.5696853 74.7820967,25.7612603 C74.7801207,24.9528352 74.123162,24.2990784 73.3147368,24.3010526 L73.3147368,24.2938947 Z M70.4802105,18.5210526 C69.8363987,18.428562 69.1872192,18.3783492 68.5368421,18.3707368 L68.5368421,17.6155789 C69.0629323,17.6277646 69.5878336,17.5601911 70.0936842,17.4151579 L70.4802105,18.5210526 Z M70.4086316,24.4692632 L71.0492632,24.8021053 L68.0322105,24.8414737 L70.4086316,24.4692632 Z M69.0987368,24.3368421 C69.2293788,24.2375047 69.3419668,24.1164426 69.4315789,23.9789474 L69.9147368,24.2294737 L69.0987368,24.3368421 Z M69.1273684,8.12421053 C69.1236839,8.18022016 69.1236839,8.23641142 69.1273684,8.29242105 C69.1211715,8.45975892 69.1380315,8.62715359 69.1774737,8.78989474 L67.7458947,8.78989474 C67.7852947,8.63196377 67.8033501,8.4694646 67.7995789,8.30673684 C67.80431,8.25076647 67.80431,8.19449669 67.7995789,8.13852632 L69.1273684,8.12421053 Z M66.4968421,17.3077895 C66.9824061,17.498671 67.4997405,17.595823 68.0214737,17.5941053 L68.0214737,18.36 C67.3655829,18.3627918 66.7105239,18.4070203 66.0602105,18.4924211 L66.4968421,17.3077895 Z M65.5341053,19.9168421 C66.3580047,20.0893355 67.1976068,20.1756946 68.0393684,20.1745263 L68.0393684,21.7778947 C67.3056488,21.8560122 66.7469683,22.4716381 66.7402105,23.2094737 C66.7397692,23.390788 66.7737757,23.5705356 66.8404211,23.7391579 L63.6444211,25.0848421 L65.5341053,19.9168421 Z M67.0086316,24.0755789 C67.1890921,24.3155494 67.4389821,24.4942209 67.7244211,24.5873684 L64.4174737,25.1421053 L67.0086316,24.0755789 Z M71.9046316,25.3532632 L64.9221053,25.3246316 L66.8189474,25.0633684 L71.5789474,25.0633684 L71.5503158,25.0418947 L71.9368421,25.2423158 C71.9368421,25.2745263 71.9117895,25.3103158 71.9046316,25.3461053 L71.9046316,25.3532632 Z M72.1301053,24.8844211 L69.5926316,23.6210526 C69.6322627,23.4874248 69.6527475,23.3488527 69.6534737,23.2094737 C69.6397184,22.5526228 69.1858849,21.9871671 68.5475789,21.8315789 L68.5475789,20.1745263 C69.3640295,20.1677486 70.1774448,20.0741699 70.9741053,19.8953684 L72.5917895,24.4871579 C72.4118565,24.5890966 72.255692,24.7281805 72.1336842,24.8951579 L72.1301053,24.8844211 Z M55.7349474,26.4555789 C55.7447512,26.1343958 56.0109969,25.8808022 56.3322769,25.8866357 C56.6535569,25.8924692 56.9104215,26.1555608 56.908559,26.4768882 C56.9066965,26.7982156 56.6467995,27.0583121 56.3254737,27.0604211 C56.1660348,27.0614675 56.0130312,26.9976056 55.9016465,26.8835209 C55.7902621,26.7694362 55.7300829,26.6149469 55.7349474,26.4555789 Z M56.3254737,27.1713684 C56.7183136,27.1615443 57.029779,26.8368556 57.0232704,26.4439467 C57.0167613,26.0510377 56.6947126,25.7368437 56.3017624,25.7400368 C55.9088126,25.74323 55.5919122,26.0626161 55.5917895,26.4555789 C55.591729,26.6485597 55.669594,26.8333888 55.807726,26.9681519 C55.9458583,27.1029149 56.1325534,27.1761929 56.3254737,27.1713684 Z M56.1715789,26.5021053 L56.3183158,26.5021053 L56.5402105,26.86 L56.6833684,26.86 L56.4435789,26.5021053 C56.5033892,26.5021776 56.5606098,26.4777086 56.6018751,26.4344139 C56.6431403,26.3911192 56.6648363,26.3327905 56.6618947,26.2730526 C56.6618947,26.1084211 56.5652632,26.0368421 56.3684211,26.0368421 L56.0498947,26.0368421 L56.0498947,26.8778947 L56.1751579,26.8778947 L56.1715789,26.5021053 Z M56.1715789,26.3947368 L56.1715789,26.1370526 L56.3433684,26.1370526 C56.4292632,26.1370526 56.5258947,26.1549474 56.5258947,26.2587368 C56.5258947,26.3625263 56.4292632,26.3947368 56.3218947,26.3947368 L56.1715789,26.3947368 Z M75.7949474,26.4555789 C75.8047512,26.1343958 76.0709969,25.8808022 76.3922769,25.8866357 C76.7135569,25.8924692 76.9704215,26.1555608 76.968559,26.4768882 C76.9666965,26.7982156 76.7067995,27.0583121 76.3854737,27.0604211 C76.2260348,27.0614675 76.0730312,26.9976056 75.9616465,26.8835209 C75.8502621,26.7694362 75.7900829,26.6149469 75.7949474,26.4555789 Z M76.3854737,27.1713684 C76.7783136,27.1615443 77.089779,26.8368556 77.0832704,26.4439467 C77.0767613,26.0510377 76.7547126,25.7368437 76.3617624,25.7400368 C75.9688126,25.74323 75.6519122,26.0626161 75.6517895,26.4555789 C75.651729,26.6485597 75.729594,26.8333888 75.867726,26.9681519 C76.0058583,27.1029149 76.1925534,27.1761929 76.3854737,27.1713684 Z M76.2315789,26.5128421 L76.3747368,26.5128421 L76.5966316,26.8707368 L76.7397895,26.8707368 L76.5,26.5128421 C76.5598103,26.5129145 76.6170309,26.4884455 76.6582961,26.4451507 C76.6995614,26.401856 76.7212573,26.3435273 76.7183158,26.2837895 C76.7183158,26.1191579 76.6216842,26.0475789 76.4212632,26.0475789 L76.1027368,26.0475789 L76.1027368,26.8778947 L76.2315789,26.8778947 L76.2315789,26.5128421 Z M76.2315789,26.4054737 L76.2315789,26.1477895 L76.4033684,26.1477895 C76.4892632,26.1477895 76.5858947,26.1656842 76.5858947,26.2694737 C76.5858947,26.3732632 76.4928421,26.4054737 76.3818947,26.4054737 L76.2315789,26.4054737 Z M8.40694737,10.1713684 L8.37473684,24.2724211 C8.37473684,26.3911579 10.4254737,27.5221053 14.1368421,27.5221053 C17.8482105,27.5221053 19.8882105,26.3661053 19.8882105,24.2724211 L19.8882105,8.08842105 L16.9928421,8.08842105 L16.9928421,25.3818947 C17.0072909,25.6599322 16.8704225,25.9240884 16.6349474,26.0726316 C16.3429779,26.2330841 15.9892326,26.2330841 15.6972632,26.0726316 C15.4564172,25.9302175 15.3113242,25.6687764 15.3178947,25.3890526 L15.3178947,8.08842105 L12.9701053,8.08842105 L12.9701053,25.3890526 C12.9754194,25.6114686 12.8876545,25.8260079 12.7279776,25.9809285 C12.5683007,26.135849 12.3512063,26.2170881 12.1290526,26.2050526 C11.9058991,26.2158315 11.6880854,26.1346427 11.5264317,25.9804292 C11.3647781,25.8262157 11.273424,25.6124662 11.2736842,25.3890526 L11.2736842,8.10631579 L7.27242105,8.10631579 L7.27242105,8.77557895 C7.27242105,9.49852632 8.40694737,8.98315789 8.40694737,10.1713684 Z M49.3894737,18.9684211 L46.5048421,18.9827368 L46.5048421,25.6431579 C46.4885962,25.8530873 46.3881906,26.0475384 46.2264361,26.1823337 C46.0646817,26.3171291 45.8553122,26.3808239 45.6458947,26.3589474 C45.4404599,26.380988 45.235154,26.3162375 45.0795349,26.1803257 C44.9239158,26.0444139 44.8321237,25.8496901 44.8263158,25.6431579 L44.8263158,17.2075789 L49.3894737,17.2075789 L49.3894737,10.1534737 C49.3894737,9.30884211 48.3658947,7.72694737 45.9071579,7.72694737 L45.4132632,7.72694737 C42.9616842,7.72694737 41.9524211,9.30884211 41.9524211,10.1534737 L41.9524211,25.0884211 C41.956,26.0869474 43.0654737,27.5185263 45.4347368,27.5185263 L45.9178947,27.5185263 C48.2871579,27.5185263 49.3894737,26.0726316 49.3894737,25.0884211 L49.3894737,18.9684211 Z M44.8227368,14.9098947 L44.8263158,9.52715789 C44.8292759,9.32654802 44.9438524,9.14433049 45.1233684,9.05473684 C45.4680611,8.87704407 45.8774125,8.87704407 46.2221053,9.05473684 C46.3977811,9.15356618 46.5060249,9.33991027 46.5048421,9.54147368 L46.5048518,14.9098947 L44.8227368,14.9098947 Z M29.7052632,18.9684211 L26.8421053,18.9684211 C26.8421053,19.2189474 26.8277895,25.6431579 26.8277895,25.6431579 C26.8105865,25.8527036 26.7099168,26.0465519 26.5483978,26.1811511 C26.3868788,26.3157503 26.1780548,26.3798133 25.9688421,26.3589474 C25.7634072,26.380988 25.5581013,26.3162375 25.4024823,26.1803257 C25.2468633,26.0444139 25.1550711,25.8496901 25.1492632,25.6431579 L25.1492632,17.2075789 L29.7052632,17.2075789 L29.7052632,10.1534737 C29.7052632,9.30526316 28.6888421,7.72694737 26.2408421,7.72694737 L25.7469474,7.72694737 C23.2953684,7.72694737 22.2861053,9.30884211 22.2861053,10.1534737 L22.2861053,25.0884211 C22.2896842,26.0869474 23.3991579,27.5185263 25.7684211,27.5185263 L26.2301053,27.5185263 C28.5993684,27.5185263 29.7052632,26.0726316 29.7052632,25.0884211 L29.7052632,18.9684211 Z M25.1492632,14.9098947 L25.1635789,9.52715789 C25.1665392,9.32654802 25.2811154,9.14433049 25.4606316,9.05473684 C25.8064338,8.87641081 26.2171451,8.87641081 26.5629474,9.05473684 C26.7372437,9.15449195 26.8440158,9.34065873 26.8421053,9.54147368 L26.8421053,14.9098947 L25.1492632,14.9098947 Z M50.6134737,8.13494737 L50.6134737,8.80778947 C50.6134737,9.52357895 51.748,9.01536842 51.748,10.2 L51.748,27.2178947 L54.6362105,27.2178947 L54.6362105,9.43052632 C54.6757973,9.2653235 54.7838142,9.12477162 54.9332632,9.044 C55.2582072,8.86836738 55.6497928,8.86836738 55.9747368,9.044 C56.1707672,9.15029241 56.2939861,9.35428829 56.2968421,9.57726316 L56.2968421,17.1789474 L59.2244211,17.1789474 L59.2244211,9.62378947 C59.2466825,9.03651646 58.9213952,8.49109909 58.3941053,8.23157895 C57.4313684,7.73052632 55.9138947,7.51578947 54.8581053,8.296 L54.6505263,8.43915789 L54.6505263,8.13852632 L50.6134737,8.13494737 Z M79.696,4.11936842 L79.7031579,4.12294737 C79.6939997,3.47296808 79.4228984,2.854196 78.9512808,2.40683294 C78.4796632,1.95946987 77.8474522,1.72138592 77.1978947,1.74652632 L3.75789474,1.74652632 C2.34063158,1.74652632 1.38505263,2.75221053 1.38505263,4.25178947 L1.38505263,29.9557895 C1.39889865,30.6226023 1.68072044,31.2557379 2.16691187,31.7122999 C2.6531033,32.1688619 3.30268639,32.4103697 3.96905263,32.3823158 L77.2551579,32.3823158 C78.5729056,32.3496142 79.6399132,31.3013806 79.696,29.9844211 L79.696,4.11936842 Z M78.5936842,4.12294737 L78.5829474,29.9844211 C78.5309796,30.6903812 77.9587807,31.2456603 77.2515789,31.2764211 L3.97978947,31.2764211 C3.60898003,31.29986 3.24424337,31.1737208 2.96713836,30.9262095 C2.69003336,30.6786983 2.52367514,30.3304614 2.50526316,29.9593684 L2.50526316,4.25178947 C2.50526316,3.468 2.86315789,2.86315789 3.76147368,2.86315789 L31.3193684,2.86315789 C31.6522105,2.99557895 32.1031579,3.06715789 32.1031579,3.81515789 L32.1031579,25.1098947 C32.1031579,26.1084211 33.2877895,27.54 35.8288421,27.54 C38.2804211,27.54 39.5938947,26.1298947 39.5938947,25.1098947 L39.5938947,10.5292632 C39.5938947,9.29094737 39.1178947,8.42842105 38.216,8.04905263 C37.0671579,7.56589474 35.6033684,7.76273684 35.2168421,8.15284211 L35.0128421,8.36042105 L35.0128421,2.86315789 L77.2014737,2.86315789 C77.555108,2.83762668 77.9038135,2.95773663 78.1667122,3.19562974 C78.4296113,3.43352285 78.5838607,3.76852886 78.5936842,4.12294737 Z M35.0235789,25.6431579 L35.0235789,9.46273684 C35.0235789,9.10842105 35.4494737,8.92589474 35.8682105,8.92589474 C36.3406316,8.92589474 36.6555789,9.13705263 36.6555789,9.46273684 L36.6555789,25.6431579 C36.5904661,26.0432264 36.2449116,26.3370873 35.8395789,26.3370873 C35.4342464,26.3370873 35.0886918,26.0432264 35.0235789,25.6431579 Z" id="Combined-Shape"></path>
            </g>
        </g>
    </g>
</svg>